<?xml version="1.0" standalone="no"?>
<!DOCTYPE svg PUBLIC "-//W3C//DTD SVG 20010904//EN"
 "http://www.w3.org/TR/2001/REC-SVG-20010904/DTD/svg10.dtd">
<svg version="1.0" xmlns="http://www.w3.org/2000/svg"
 width="511.000000pt" height="453.000000pt" viewBox="0 0 511.000000 453.000000"
 preserveAspectRatio="xMidYMid meet">

<g transform="translate(0.000000,453.000000) scale(0.100000,-0.100000)"
fill="#000000" stroke="none">
<path d="M2572 4070 c-88 -12 -219 -46 -260 -68 -73 -37 -90 -131 -52 -273 11
-41 36 -148 56 -239 19 -91 40 -183 46 -205 7 -22 13 -49 14 -60 3 -44 57
-281 65 -291 5 -6 7 -13 4 -16 -3 -2 9 -65 25 -139 22 -102 34 -138 51 -151
12 -10 17 -18 13 -18 -5 0 2 -7 15 -16 28 -20 137 -32 127 -15 -5 7 4 14 23
17 17 4 31 11 31 16 0 5 11 21 25 36 14 15 23 34 20 42 -4 8 -3 11 1 7 10 -10
56 61 48 75 -4 6 -3 8 2 5 10 -6 75 77 106 135 10 17 27 42 38 56 12 13 19 30
16 37 -3 9 0 12 9 9 7 -3 16 3 20 15 3 12 11 21 16 21 5 0 9 6 9 14 0 7 7 19
15 26 9 7 30 34 47 59 116 169 247 350 271 376 43 45 95 122 107 158 21 67 -5
150 -69 220 -60 66 -228 135 -376 155 -112 15 -387 22 -463 12z m9 -547 c-7
-37 -9 -3 -10 142 0 105 3 201 7 215 11 37 14 -302 3 -357z m309 227 c-45
-224 -97 -426 -99 -383 -1 19 58 299 85 403 31 121 35 132 39 128 2 -2 -9 -69
-25 -148z m-193 -82 c-2 -13 -4 -3 -4 22 0 25 2 35 4 23 2 -13 2 -33 0 -45z
m579 -20 c-37 -119 -110 -298 -122 -298 -10 0 79 245 111 308 23 44 27 40 11
-10z m-647 -783 c6 -49 14 -103 17 -120 5 -23 3 -27 -6 -18 -25 23 -49 183
-48 313 l1 125 12 -105 c7 -58 18 -145 24 -195z m98 73 c-3 -7 -5 -2 -5 12 0
14 2 19 5 13 2 -7 2 -19 0 -25z"/>
<path d="M1908 3941 c-62 -17 -125 -44 -423 -186 -249 -118 -355 -232 -355
-385 0 -81 24 -136 76 -176 22 -17 134 -93 249 -169 116 -75 229 -150 251
-166 23 -16 44 -26 47 -23 3 3 14 1 24 -6 17 -11 17 -11 -2 -6 -17 5 -16 3 5
-14 23 -18 29 -20 45 -20 6 0 26 -15 53 -41 25 -24 78 -49 87 -41 5 4 4 1 0
-7 -6 -11 -4 -13 8 -8 10 4 16 2 14 -6 -1 -6 8 -13 21 -15 13 -2 20 -8 16 -14
-5 -7 -1 -9 9 -5 9 3 16 2 14 -3 -1 -4 43 -39 98 -75 90 -60 106 -68 156 -70
50 -3 60 0 92 26 47 39 62 84 46 141 -7 24 -13 52 -15 63 -6 51 -36 180 -45
197 -5 10 -8 22 -5 26 5 8 -9 80 -22 112 -3 8 -6 24 -8 35 -6 55 -140 688
-155 733 -14 42 -51 79 -103 103 -51 23 -92 23 -178 0z m270 -423 c44 -136
122 -399 122 -410 0 -5 -4 -8 -8 -8 -5 0 -15 19 -22 43 -7 23 -19 60 -26 82
-20 59 -114 395 -114 406 0 27 12 -3 48 -113z m-376 -312 c59 -72 109 -140
112 -151 5 -21 -2 -13 -58 56 -11 13 -35 42 -55 64 -107 120 -221 264 -221
279 0 14 87 -83 222 -248z m300 -448 c81 -81 101 -108 80 -108 -16 0 -243 231
-236 241 7 12 29 -7 156 -133z"/>
<path d="M3582 3639 c-50 -18 -80 -37 -138 -92 -46 -43 -73 -75 -70 -84 3 -8
2 -11 -3 -8 -6 3 -54 -59 -109 -137 -114 -164 -126 -184 -116 -200 4 -6 3 -8
-4 -4 -13 8 -56 -50 -47 -64 4 -6 2 -9 -3 -8 -5 2 -26 -21 -46 -49 -20 -29
-33 -53 -29 -53 5 0 3 -4 -3 -8 -10 -6 -31 -36 -127 -181 -9 -14 -15 -32 -12
-39 3 -7 1 -10 -4 -7 -13 7 -42 -35 -34 -49 3 -6 2 -8 -2 -3 -8 6 -34 -30 -67
-91 -10 -20 -9 -29 3 -50 21 -38 56 -39 120 -2 30 17 70 38 89 48 19 9 41 23
48 30 7 6 18 12 23 12 6 0 7 4 4 10 -4 6 1 7 11 3 13 -5 15 -3 9 7 -5 8 -4 11
2 7 13 -8 73 21 73 34 0 6 4 8 8 5 5 -3 20 5 33 17 13 12 25 21 26 20 9 -8 23
-1 17 8 -4 7 -1 10 7 7 8 -3 25 2 39 11 14 10 46 28 72 41 26 13 44 28 42 32
-3 4 5 8 18 8 13 0 28 4 34 9 5 5 50 31 99 59 50 27 108 60 130 72 22 13 101
54 175 92 74 38 152 86 172 105 91 88 63 249 -67 379 -115 116 -248 156 -373
113z m-52 -285 c-40 -47 -105 -121 -144 -163 -39 -43 -95 -105 -125 -139 -30
-34 -59 -59 -64 -55 -5 3 -3 9 4 14 8 5 10 9 6 9 -4 0 9 17 30 38 21 21 64 70
97 108 87 103 259 285 264 279 3 -2 -28 -43 -68 -91z m175 -110 c-88 -82 -281
-233 -299 -234 -15 0 43 50 242 209 63 50 117 91 120 91 4 -1 -24 -30 -63 -66z
m-275 -315 c-27 -22 -123 -87 -155 -105 -11 -6 -81 -48 -155 -93 -74 -44 -138
-81 -142 -81 -17 0 -6 16 25 36 164 107 319 203 347 217 8 4 33 18 55 30 46
27 61 25 25 -4z"/>
<path d="M922 3154 c-55 -27 -111 -87 -159 -169 -183 -314 -155 -914 47 -1020
71 -37 124 -32 510 47 241 49 223 43 210 67 -5 11 -10 30 -9 43 0 18 3 16 12
-12 11 -30 16 -35 42 -33 17 1 40 8 53 14 20 11 22 19 22 96 l0 85 -62 -6
c-121 -10 -404 -15 -363 -7 65 14 615 55 623 46 12 -11 -11 -18 -78 -23 l-70
-5 0 -43 c0 -23 -4 -46 -10 -49 -6 -4 -10 12 -10 39 0 25 -4 46 -10 46 -6 0
-10 -37 -10 -90 0 -53 4 -90 10 -90 6 0 10 16 10 35 0 19 5 35 11 35 7 0 9
-10 7 -25 -3 -15 1 -30 10 -37 13 -10 14 -10 8 0 -4 6 -2 12 3 12 6 0 11 11
11 24 0 14 5 28 10 31 6 4 10 -8 10 -30 0 -22 4 -34 10 -30 6 3 10 17 10 30 0
26 45 64 58 50 4 -4 1 -10 -6 -12 -17 -6 -42 -32 -42 -44 0 -5 16 -9 35 -9 30
0 37 5 49 34 15 36 33 52 44 41 4 -4 -1 -12 -11 -19 -18 -14 -24 -46 -7 -46 6
0 10 4 10 9 0 17 31 41 52 41 14 0 18 -5 14 -16 -4 -11 -1 -14 12 -12 27 5 22
43 -6 42 -15 0 -19 3 -13 9 14 14 61 -8 61 -27 0 -20 38 -9 74 22 25 20 36 23
65 17 45 -9 93 -8 100 2 3 5 12 9 20 11 24 5 61 54 67 89 9 46 -13 99 -52 131
-19 15 -37 27 -41 27 -5 0 -28 15 -52 33 -41 30 -55 36 -73 33 -5 0 -8 3 -8 8
0 15 -69 53 -81 45 -8 -4 -9 -3 -5 4 8 13 -51 48 -73 43 -7 -1 -10 2 -7 8 4 5
-3 15 -14 21 -11 6 -20 7 -20 3 0 -4 -6 1 -13 12 -9 11 -19 15 -27 10 -8 -5
-11 -4 -7 1 3 5 -31 31 -76 58 -45 26 -102 60 -127 76 -46 29 -305 179 -415
240 -33 19 -87 51 -119 72 -75 48 -135 52 -214 12z m275 -475 c200 -42 212
-44 261 -58 47 -13 56 -23 15 -16 -142 24 -395 77 -448 94 l-30 9 27 1 c15 1
94 -13 175 -30z m769 -159 c132 -45 243 -86 248 -91 13 -12 -29 -12 -52 0 -9
5 -71 26 -137 46 -66 20 -134 43 -152 51 -17 8 -35 14 -41 14 -5 0 -23 7 -38
15 -16 8 -36 15 -44 15 -8 0 -33 10 -55 21 l-40 20 36 -5 c20 -2 144 -41 275
-86z m144 36 c0 -2 -7 -7 -16 -10 -8 -3 -12 -2 -9 4 6 10 25 14 25 6z m-860
-267 c40 -2 38 -3 -20 -9 -100 -12 -430 -12 -430 0 0 10 259 20 355 13 28 -1
70 -4 95 -4z m375 -93 c0 -11 -7 -22 -15 -24 -12 -4 -13 -3 -2 10 10 13 9 17
-5 22 -13 5 -26 -2 -45 -24 -27 -30 -40 -19 -15 12 25 33 82 35 82 4z m184 20
c-2 -2 -15 -9 -29 -15 -24 -11 -24 -11 -6 3 16 13 49 24 35 12z m-532 -42 c-3
-3 -12 -4 -19 -1 -8 3 -5 6 6 6 11 1 17 -2 13 -5z m297 -67 c4 -19 3 -26 -4
-22 -5 3 -10 18 -10 32 0 32 5 28 14 -10z"/>
<path d="M3943 3055 c-28 -8 -86 -34 -130 -58 -77 -44 -306 -187 -330 -207 -7
-6 -13 -7 -13 -3 -1 4 -10 -3 -20 -16 -11 -13 -20 -19 -20 -13 0 6 -18 1 -39
-11 -22 -12 -37 -26 -34 -31 4 -5 1 -6 -5 -2 -6 3 -16 1 -24 -6 -7 -7 -20 -14
-28 -16 -8 -2 -20 -10 -26 -17 -6 -8 -14 -12 -17 -8 -4 3 -9 -2 -13 -11 -3 -9
-10 -14 -14 -11 -12 7 -195 -102 -192 -115 1 -6 -2 -9 -7 -6 -12 8 -111 -42
-118 -60 -3 -8 -9 -12 -13 -9 -5 3 -18 -7 -29 -21 -24 -31 -27 -87 -6 -124
l14 -25 1 36 c0 51 30 79 84 79 30 0 48 -6 61 -20 23 -26 30 -106 9 -114 -8
-3 -14 0 -14 6 0 6 -9 3 -21 -8 -21 -19 -20 -19 63 -36 45 -10 95 -15 110 -12
14 3 39 -1 55 -9 45 -23 100 -30 106 -14 14 37 122 24 133 -17 5 -23 39 -31
389 -93 168 -30 198 -36 295 -58 84 -18 126 -14 165 17 72 56 109 165 109 323
0 119 -6 152 -66 355 -45 153 -70 201 -134 260 -83 76 -182 103 -281 75z m155
-341 c-9 -8 -232 -58 -378 -84 -69 -12 -142 -26 -162 -30 -21 -4 -38 -4 -38 1
0 5 10 11 23 14 98 21 456 91 502 98 51 7 59 7 53 1z m-518 -223 c0 -5 -15
-11 -32 -15 -47 -8 -313 -44 -375 -50 -58 -6 -82 8 -30 17 76 14 360 51 420
56 9 0 17 -3 17 -8z m-603 -77 c-3 -3 -12 -4 -19 -1 -8 3 -5 6 6 6 11 1 17 -2
13 -5z m1188 -15 c11 -11 -142 -12 -236 -2 -46 4 -58 8 -44 14 25 11 267 0
280 -12z m-800 -39 c-3 -5 -15 -10 -26 -10 -10 0 -19 5 -19 10 0 6 12 10 26
10 14 0 23 -4 19 -10z"/>
<path d="M2934 2370 c-42 -17 -35 -92 10 -106 24 -8 61 28 53 50 -8 21 -36 31
-49 18 -16 -16 0 -36 18 -21 11 9 14 8 14 -5 0 -9 -7 -19 -15 -22 -21 -8 -47
15 -43 39 8 52 82 47 97 -6 9 -31 9 -31 10 -4 1 31 -30 67 -56 66 -10 0 -28
-4 -39 -9z"/>
<path d="M2920 2210 c0 -5 -6 -7 -14 -4 -9 3 -16 -4 -20 -21 -5 -20 -11 -25
-26 -20 -39 12 -77 -27 -65 -66 9 -27 28 -23 47 9 11 17 18 21 18 11 0 -30
-25 -52 -53 -47 -19 4 -27 1 -27 -9 0 -18 24 -27 54 -19 25 6 53 57 41 75 -3
6 -1 11 4 11 17 0 13 -48 -5 -75 -12 -19 -25 -25 -51 -25 l-34 0 18 -31 c10
-17 24 -33 30 -36 7 -3 10 -10 6 -16 -4 -6 0 -8 10 -4 11 4 14 2 11 -7 -6 -16
30 -79 39 -69 4 3 7 -2 7 -13 0 -15 2 -16 9 -5 6 10 11 4 16 -20 4 -19 25 -55
46 -80 22 -26 39 -51 39 -56 0 -5 8 -18 18 -29 10 -10 21 -27 25 -37 4 -10 12
-15 17 -12 6 4 10 3 9 -2 -4 -21 2 -34 13 -27 7 5 8 3 3 -6 -4 -7 -3 -15 2
-19 5 -3 35 -43 66 -88 31 -46 80 -115 110 -155 29 -40 72 -100 94 -133 206
-298 208 -300 300 -291 116 11 212 89 356 291 43 61 93 130 112 155 140 181
193 411 122 532 -55 95 -166 141 -437 183 -52 8 -135 22 -185 30 -148 27 -209
33 -219 24 -16 -14 -38 -10 -52 9 -12 16 -13 16 -14 0 0 -19 35 -42 50 -33 5
3 19 -5 32 -18 24 -25 39 -31 228 -79 63 -16 129 -33 145 -37 l30 -9 -35 -1
c-47 -1 -201 32 -295 64 -41 14 -94 25 -116 25 -51 0 -89 37 -89 86 0 27 -4
34 -20 34 -17 0 -20 -7 -20 -53 0 -55 -13 -79 -36 -70 -9 3 -14 22 -14 53 0
61 -7 80 -31 80 -15 0 -19 -10 -22 -57 l-3 -58 -2 68 c-2 50 -6 67 -16 67 -11
0 -13 -13 -9 -60 4 -41 2 -60 -6 -60 -7 0 -11 19 -11 50 0 43 -3 50 -20 50
-12 0 -21 -7 -21 -17 -1 -10 -3 -25 -4 -33 -1 -8 -3 -30 -4 -47 -1 -25 -5 -33
-20 -33 -11 0 -23 5 -26 11 -4 6 0 9 11 7 16 -3 19 4 20 50 1 35 7 59 19 72
18 20 11 25 -19 14 -11 -4 -16 -19 -16 -52 0 -25 -3 -42 -7 -38 -10 10 -12 96
-2 90 4 -2 10 0 13 5 3 5 -10 11 -29 13 l-35 4 0 -86 0 -86 46 -22 c25 -12 51
-27 57 -32 7 -6 62 -44 124 -84 131 -86 183 -126 165 -126 -12 0 -83 39 -158
88 -23 15 -69 45 -103 67 -35 22 -72 48 -84 58 -11 10 -29 15 -41 12 -12 -3
-15 -2 -8 1 18 8 -4 34 -29 34 -15 0 -19 7 -18 38 1 37 1 37 12 10 18 -47 27
-31 27 47 0 57 -3 75 -14 75 -9 0 -12 -12 -10 -41 2 -29 0 -39 -8 -31 -6 6 -9
29 -6 51 2 23 0 41 -4 41 -5 0 -8 -4 -8 -10z m638 -145 c-3 -3 -9 2 -12 12 -6
14 -5 15 5 6 7 -7 10 -15 7 -18z m-34 -10 c3 -8 1 -15 -4 -15 -6 0 -10 7 -10
15 0 8 2 15 4 15 2 0 6 -7 10 -15z m-564 -181 c0 -8 -19 -13 -24 -6 -3 5 1 9
9 9 8 0 15 -2 15 -3z m895 -79 c134 -17 226 -32 233 -40 8 -8 -25 -6 -167 11
-157 18 -277 41 -221 43 19 0 89 -6 155 -14z m-355 -368 c151 -100 261 -180
256 -185 -9 -9 -339 208 -386 254 -30 30 23 1 130 -69z"/>
<path d="M2114 2196 c-16 -12 -16 -13 7 -11 13 1 33 3 43 4 23 1 17 10 -12 16
-11 2 -28 -2 -38 -9z"/>
<path d="M3374 2200 c-43 -17 -40 -33 5 -25 23 4 41 3 41 -2 0 -6 7 -10 15
-10 17 0 18 6 7 23 -11 17 -44 24 -68 14z"/>
<path d="M2242 2193 c-19 -4 -21 -8 -15 -26 4 -12 8 -47 8 -77 0 -49 -2 -55
-22 -58 -22 -3 -23 0 -23 53 0 36 -4 54 -10 50 -6 -4 -9 -1 -8 6 4 17 -30 23
-47 9 -22 -18 -18 -47 7 -64 23 -16 13 -21 -16 -10 -9 4 -16 18 -16 34 0 16
-4 32 -10 35 -13 8 -13 -41 0 -66 7 -12 7 -19 1 -19 -14 0 -31 34 -31 60 0 19
-4 21 -32 15 -18 -4 -41 -14 -50 -22 -10 -9 -27 -13 -38 -10 -14 3 -20 1 -17
-6 2 -7 26 -13 53 -15 50 -3 66 -15 57 -40 -5 -11 -21 -13 -71 -10 -61 4 -82
15 -94 49 -2 4 -22 5 -45 2 -36 -5 -43 -9 -43 -28 0 -31 -26 -39 -44 -14 -14
21 -15 21 -68 3 -29 -11 -64 -19 -78 -20 -28 -1 -404 -78 -493 -100 -86 -22
-159 -57 -205 -99 -129 -116 -83 -295 161 -625 83 -112 119 -147 210 -202 131
-79 184 -65 307 81 25 30 50 59 55 65 12 13 56 65 135 156 30 35 75 85 98 112
27 28 41 52 36 59 -4 7 -3 9 4 5 9 -5 23 10 87 92 5 7 17 21 27 30 50 52 147
176 142 184 -3 5 0 7 6 6 7 -2 17 5 23 15 7 10 27 34 45 54 18 19 29 39 26 45
-4 6 -2 8 4 4 11 -7 98 96 91 109 -2 3 4 11 14 16 23 13 24 101 2 119 -23 19
-33 2 -37 -60 -3 -49 -5 -55 -27 -58 -24 -4 -24 -4 -19 82 3 58 1 86 -6 85 -6
-1 -21 -4 -34 -6z m-72 -142 c0 -26 -27 -34 -53 -16 -21 15 -21 15 11 9 25 -5
32 -3 32 10 0 9 2 16 5 16 3 0 5 -9 5 -19z m-530 -110 c0 -13 -607 -218 -616
-208 -7 7 103 48 366 138 236 81 250 84 250 70z m185 -165 c-11 -7 -63 -32
-115 -55 -101 -44 -146 -67 -302 -150 -54 -29 -98 -50 -98 -46 0 21 337 204
454 246 62 22 89 25 61 5z m-94 -280 c-24 -28 -372 -246 -394 -246 -24 0 375
259 402 260 2 0 -2 -6 -8 -14z"/>
<path d="M2845 2190 c-3 -5 3 -10 14 -10 12 0 21 5 21 10 0 6 -6 10 -14 10 -8
0 -18 -4 -21 -10z"/>
<path d="M2301 2164 c-14 -31 -15 -111 -1 -119 6 -4 10 11 10 39 0 24 4 56 10
70 12 33 -4 43 -19 10z"/>
<path d="M2190 2161 c5 -11 10 -40 10 -65 0 -49 19 -75 21 -29 3 70 -7 113
-27 113 -11 0 -12 -4 -4 -19z"/>
<path d="M3230 2099 c0 -44 3 -60 13 -57 23 8 21 118 -3 118 -6 0 -10 -27 -10
-61z"/>
<path d="M3325 2108 c8 -39 38 -68 71 -68 17 0 22 4 18 15 -4 8 -14 15 -23 15
-24 0 -41 20 -41 47 0 14 -6 23 -16 23 -12 0 -14 -7 -9 -32z"/>
<path d="M3390 2119 c0 -5 5 -7 10 -4 6 3 10 8 10 11 0 2 -4 4 -10 4 -5 0 -10
-5 -10 -11z"/>
<path d="M1880 2090 c0 -25 45 -50 92 -50 26 0 48 5 48 10 0 6 -3 10 -7 11
-78 8 -99 13 -106 25 -9 16 -27 19 -27 4z"/>
<path d="M1750 2054 c0 -8 5 -12 10 -9 6 4 8 11 5 16 -9 14 -15 11 -15 -7z"/>
<path d="M2403 2003 c-62 -67 -122 -150 -115 -158 4 -5 2 -5 -4 -2 -11 7 -54
-35 -54 -53 0 -6 -5 -10 -12 -10 -6 0 -9 -3 -6 -6 4 -3 -17 -30 -45 -61 -29
-30 -57 -63 -62 -74 -6 -10 -21 -26 -33 -35 -12 -8 -22 -19 -22 -24 0 -4 -18
-27 -40 -50 -22 -23 -40 -51 -41 -63 0 -12 -3 -16 -6 -10 -3 8 -21 -6 -46 -36
-23 -26 -85 -95 -138 -152 -217 -237 -249 -320 -178 -475 50 -112 220 -240
391 -295 86 -27 233 -40 336 -28 194 21 270 79 301 229 15 72 7 561 -13 870
-28 416 -26 398 -54 432 -18 22 -32 29 -49 25 -13 -2 -26 0 -29 4 -3 5 -14 4
-26 -2 -15 -8 -19 -8 -14 0 15 24 -8 9 -41 -26z m-11 -140 c-20 -47 -170 -314
-222 -393 -6 -8 -18 -29 -27 -47 -16 -31 -43 -52 -43 -33 0 20 280 490 292
490 4 0 4 -8 0 -17z m115 -315 c-3 -8 -6 -5 -6 6 -1 11 2 17 5 13 3 -3 4 -12
1 -19z m32 -523 c0 -115 -4 -182 -9 -170 -5 11 -9 106 -9 210 0 115 4 182 9
170 5 -11 9 -105 9 -210z m-368 117 c-69 -178 -159 -377 -166 -370 -6 6 85
237 146 370 51 113 65 114 20 0z m256 -184 c-3 -7 -5 -2 -5 12 0 14 2 19 5 13
2 -7 2 -19 0 -25z"/>
<path d="M2680 2008 c0 -6 -3 -9 -6 -5 -3 3 -15 -3 -27 -13 -20 -19 -20 -23
-8 -212 6 -106 14 -229 16 -273 6 -113 17 -552 19 -730 1 -119 4 -156 18 -180
45 -82 119 -115 277 -122 192 -9 318 33 427 142 54 54 94 138 94 198 0 41 -22
122 -45 167 -18 36 -94 151 -105 160 -10 8 -124 172 -153 220 -32 53 -89 135
-118 170 -11 14 -29 42 -39 62 -11 20 -26 41 -34 45 -8 4 -15 13 -15 18 0 21
-74 124 -84 118 -6 -3 -7 -1 -3 5 7 12 -37 79 -62 95 -7 5 -10 12 -7 18 4 5
-1 12 -9 15 -9 3 -13 10 -10 15 3 5 1 9 -4 9 -5 0 -15 14 -22 30 -7 17 -22 37
-34 45 -25 18 -66 20 -66 3z m144 -350 c3 -12 9 -36 15 -53 36 -109 52 -191
32 -170 -19 21 -112 324 -110 357 1 16 57 -101 63 -134z m256 -627 c42 -77 83
-187 93 -251 7 -39 2 -31 -34 65 -12 33 -51 119 -86 190 -67 137 -49 134 27
-4z"/>
</g>
</svg>
