<?xml version="1.0" standalone="no"?>
<!DOCTYPE svg PUBLIC "-//W3C//DTD SVG 20010904//EN"
 "http://www.w3.org/TR/2001/REC-SVG-20010904/DTD/svg10.dtd">
<svg version="1.0" xmlns="http://www.w3.org/2000/svg"
 width="800.000000pt" height="800.000000pt" viewBox="0 0 800.000000 800.000000"
 preserveAspectRatio="xMidYMid meet">

<g transform="translate(0.000000,800.000000) scale(0.100000,-0.100000)"
fill="#000000" stroke="none">
<path d="M4055 6743 c-72 -9 -237 -45 -313 -69 -95 -29 -153 -73 -174 -132
-24 -71 -15 -193 29 -372 35 -142 62 -262 124 -553 7 -32 15 -53 19 -48 3 6 6
-6 6 -27 0 -32 40 -235 89 -447 9 -38 18 -79 20 -91 9 -58 54 -265 76 -346 8
-33 89 -135 89 -114 0 5 8 2 18 -7 9 -8 38 -18 63 -22 49 -7 129 9 129 26 0 6
4 8 8 5 17 -10 68 51 144 173 57 90 67 105 93 139 11 14 14 23 7 19 -8 -6 -10
-3 -6 7 3 9 10 14 15 11 4 -3 13 5 20 17 7 13 27 43 45 67 19 24 31 48 27 54
-3 6 -1 7 5 3 7 -4 12 -3 12 2 0 4 8 17 18 28 23 27 41 55 48 77 4 9 10 17 15
17 5 0 9 7 9 15 0 8 4 15 9 15 5 0 20 17 32 38 13 20 44 66 70 101 31 43 45
71 42 85 -3 14 -2 17 4 9 7 -9 25 9 64 62 99 138 180 250 195 270 7 11 33 47
56 80 23 33 57 76 74 95 60 66 115 141 142 193 22 42 27 65 26 123 0 163 -125
303 -354 396 -197 80 -398 109 -745 107 -121 -1 -233 -4 -250 -6z m485 -365
c-41 -217 -145 -661 -161 -688 -7 -12 -8 -12 -9 4 0 47 104 519 171 770 21 78
20 24 -1 -86z m-476 -458 l-7 -75 -9 50 c-11 63 0 567 13 585 7 10 10 -488 3
-560z m168 155 c3 -78 2 -114 -3 -90 -8 39 -12 232 -5 224 2 -2 5 -62 8 -134z
m853 23 c-56 -173 -165 -432 -173 -409 -7 20 101 308 175 469 27 58 26 26 -2
-60z m-1235 5 c0 -45 -5 -40 -13 10 -3 22 -2 35 4 32 5 -4 9 -22 9 -42z m927
-20 c-3 -10 -5 -4 -5 12 0 17 2 24 5 18 2 -7 2 -21 0 -30z m-908 -116 c0 -21
-1 -21 -9 -2 -12 28 -12 37 0 30 6 -3 10 -16 9 -28z m844 -47 c-3 -12 -8 -19
-11 -16 -5 6 5 36 12 36 2 0 2 -9 -1 -20z m-825 -68 c7 -30 12 -68 11 -85 -1
-20 -6 -6 -15 38 -7 39 -16 81 -19 95 -4 15 -3 21 3 15 5 -5 14 -34 20 -63z
m802 -19 c-11 -17 -11 -17 -6 0 3 10 6 24 7 30 0 9 2 9 5 0 3 -7 0 -20 -6 -30z
m-22 -83 c-7 -10 -14 -18 -15 -16 -6 6 9 36 18 36 5 0 4 -9 -3 -20z m-43 -134
c-9 -21 -18 -36 -21 -33 -3 3 2 19 10 36 9 16 17 40 17 53 2 20 2 21 6 3 2
-11 -3 -38 -12 -59z m-706 6 c1 -7 -3 -10 -9 -7 -5 3 -10 21 -9 38 1 31 1 31
9 7 4 -14 8 -31 9 -38z m681 -82 c0 -5 -5 -10 -11 -10 -5 0 -7 5 -4 10 3 6 8
10 11 10 2 0 4 -4 4 -10z m-650 -55 c0 -8 -4 -15 -10 -15 -5 0 -10 7 -10 15 0
8 5 15 10 15 6 0 10 -7 10 -15z m145 -242 c15 -162 36 -315 45 -323 3 -3 6
-16 6 -30 1 -14 4 -59 7 -100 5 -57 4 -69 -4 -50 -18 44 -41 133 -55 220 -15
93 -31 449 -19 438 4 -3 13 -73 20 -155z m202 -5 c-3 -7 -5 -2 -5 12 0 14 2
19 5 13 2 -7 2 -19 0 -25z m-23 -205 c-4 -32 -11 -65 -15 -73 -6 -9 -7 11 -3
50 4 36 9 68 11 73 11 18 13 3 7 -50z m-397 -45 c-3 -7 -5 -2 -5 12 0 14 2 19
5 13 2 -7 2 -19 0 -25z m370 -90 c-3 -8 -6 -5 -6 6 -1 11 2 17 5 13 3 -3 4
-12 1 -19z"/>
<path d="M3135 6569 c-100 -24 -217 -65 -300 -106 -49 -25 -175 -84 -280 -130
-266 -118 -379 -187 -490 -298 -100 -100 -136 -161 -155 -264 -22 -123 19
-253 102 -322 23 -20 178 -126 343 -236 430 -286 414 -276 433 -261 14 10 15
10 5 -1 -9 -11 -9 -16 0 -25 18 -17 97 -67 97 -62 0 3 11 -5 24 -18 14 -12 42
-31 63 -42 21 -10 42 -25 46 -31 4 -7 13 -13 18 -13 6 0 25 -10 42 -22 18 -13
38 -22 45 -20 7 2 11 -1 10 -5 -2 -4 1 -9 6 -10 5 -1 12 -5 15 -10 17 -23 83
-63 94 -57 6 4 9 4 5 -1 -6 -7 112 -91 120 -86 2 1 9 -4 15 -13 7 -8 32 -25
57 -37 25 -12 56 -33 70 -45 26 -24 99 -54 130 -54 10 0 41 7 69 17 56 18 121
78 121 112 0 11 4 22 9 26 21 13 -14 253 -61 420 -6 22 -12 47 -13 55 -14 108
-23 146 -47 197 -6 11 -8 25 -5 30 8 13 -12 106 -25 114 -6 4 -8 14 -5 22 3 8
-1 46 -9 84 -8 37 -33 151 -54 253 -21 102 -48 228 -60 280 -12 52 -32 149
-45 215 -32 156 -40 181 -70 227 -65 98 -195 146 -320 117z m311 -589 c49
-155 82 -264 100 -330 8 -30 22 -65 30 -78 8 -12 13 -26 10 -30 -5 -8 19 -105
30 -124 4 -7 9 -24 10 -38 2 -14 6 -35 9 -47 3 -13 1 -23 -4 -23 -5 0 -26 51
-46 113 -19 61 -40 120 -45 129 -6 10 -10 24 -10 32 0 8 -29 115 -64 238 -72
251 -83 298 -68 283 6 -5 27 -62 48 -125z m-281 -72 l16 -33 -21 24 c-11 13
-20 27 -20 32 0 18 10 8 25 -23z m-483 -185 c93 -106 181 -210 215 -253 7 -8
50 -62 96 -120 47 -58 82 -109 79 -114 -3 -5 -14 2 -25 15 -10 13 -45 53 -77
89 -47 53 -167 194 -251 295 -100 120 -163 205 -151 205 6 0 57 -53 114 -117z
m562 41 c3 -8 2 -12 -4 -9 -6 3 -10 10 -10 16 0 14 7 11 14 -7z m-344 -106 c0
-6 -7 -5 -15 2 -8 7 -15 17 -15 22 0 6 7 5 15 -2 8 -7 15 -17 15 -22z m-480
-63 c13 -14 21 -25 18 -25 -2 0 -15 11 -28 25 -13 14 -21 25 -18 25 2 0 15
-11 28 -25z m950 -76 c0 -6 -4 -7 -10 -4 -5 3 -10 11 -10 16 0 6 5 7 10 4 6
-3 10 -11 10 -16z m-820 -59 c0 -5 -2 -10 -4 -10 -3 0 -8 5 -11 10 -3 6 -1 10
4 10 6 0 11 -4 11 -10z m510 -30 c0 -5 -4 -10 -10 -10 -5 0 -10 5 -10 10 0 6
5 10 10 10 6 0 10 -4 10 -10z m-390 -85 c7 -8 8 -15 2 -15 -5 0 -15 7 -22 15
-7 8 -8 15 -2 15 5 0 15 -7 22 -15z m544 -419 c94 -86 230 -222 252 -255 50
-71 -51 4 -187 138 -120 119 -177 191 -153 191 4 0 43 -33 88 -74z m206 -5
c16 -30 12 -36 -10 -16 -21 19 -26 35 -10 35 5 0 14 -9 20 -19z m34 -46 c3 -8
1 -15 -4 -15 -6 0 -10 7 -10 15 0 8 2 15 4 15 2 0 6 -7 10 -15z m58 -80 c9
-17 7 -16 -15 4 -15 13 -24 28 -20 34 6 9 13 1 35 -38z m78 -111 c0 -3 -7 -1
-15 6 -8 7 -15 17 -15 22 0 5 7 3 15 -6 8 -8 15 -18 15 -22z"/>
<path d="M5545 6107 c-109 -41 -239 -148 -330 -272 -16 -22 -32 -42 -35 -45
-34 -29 -276 -399 -272 -416 2 -8 -3 -14 -10 -14 -15 -1 -121 -160 -107 -160
5 0 9 -5 9 -11 0 -5 -4 -8 -9 -5 -5 4 -21 -8 -35 -25 -24 -29 -30 -43 -27 -62
1 -5 -3 -6 -8 -2 -6 3 -15 -4 -22 -16 -9 -18 -9 -21 3 -16 8 3 15 -1 15 -8 0
-7 -8 -10 -17 -8 -12 3 -27 -12 -51 -49 -19 -29 -33 -56 -32 -60 2 -5 -2 -8
-7 -8 -6 0 -10 -10 -10 -22 0 -12 -3 -18 -7 -15 -3 4 -17 -8 -30 -25 -23 -32
-31 -54 -15 -44 5 3 9 -1 9 -9 0 -10 -4 -12 -12 -5 -9 7 -17 3 -29 -15 -12
-18 -13 -25 -4 -25 7 0 -2 -15 -20 -33 -18 -17 -41 -44 -50 -59 -9 -14 -36
-53 -59 -86 -23 -33 -40 -62 -37 -65 2 -2 -2 -10 -11 -17 -17 -14 -20 -56 -5
-65 6 -4 8 -10 5 -15 -9 -15 46 -50 79 -50 17 0 47 10 66 22 19 12 62 35 94
50 33 16 65 36 72 46 8 9 14 14 14 10 0 -4 27 8 59 27 33 19 62 35 65 35 3 0
30 16 60 35 30 19 60 35 66 35 5 0 10 7 10 16 0 10 6 14 14 11 7 -3 39 10 70
29 31 19 62 34 69 34 7 0 6 4 -3 10 -12 8 -11 10 8 10 31 0 134 59 125 72 -3
7 -1 8 6 4 6 -4 24 0 39 10 15 10 54 32 87 50 33 17 78 41 100 54 22 12 68 38
102 56 34 19 85 47 113 64 28 16 53 30 56 30 2 0 23 12 46 26 23 15 118 65
210 112 232 117 287 167 309 287 14 74 -3 161 -49 255 -69 142 -255 301 -405
345 -76 22 -199 19 -272 -8z m26 -294 c-21 -38 -191 -235 -417 -483 -173 -189
-194 -210 -194 -187 0 9 4 17 10 17 5 0 16 13 24 29 9 16 32 46 53 68 50 52
175 192 220 245 44 53 304 328 309 328 3 0 0 -8 -5 -17z m234 -231 c-22 -20
-65 -56 -95 -81 -30 -24 -57 -47 -60 -51 -22 -28 -370 -294 -370 -283 0 28
543 470 560 456 2 -2 -14 -20 -35 -41z m-401 -106 c-3 -9 -10 -13 -15 -10 -5
3 -3 11 4 19 15 16 19 13 11 -9z m396 -26 c0 -5 -5 -10 -11 -10 -5 0 -7 5 -4
10 3 6 8 10 11 10 2 0 4 -4 4 -10z m-423 -6 c-3 -3 -12 -4 -19 -1 -8 3 -5 6 6
6 11 1 17 -2 13 -5z m-77 -68 c0 -2 -8 -10 -17 -17 -16 -13 -17 -12 -4 4 13
16 21 21 21 13z m350 -50 c0 -3 -4 -8 -10 -11 -5 -3 -10 -1 -10 4 0 6 5 11 10
11 6 0 10 -2 10 -4z m-420 -19 c0 -2 -15 -16 -32 -33 l-33 -29 29 33 c28 30
36 37 36 29z m119 -230 c-27 -24 -44 -36 -132 -97 -32 -22 -61 -40 -65 -40 -6
0 -84 -49 -107 -68 -5 -4 -27 -18 -48 -31 -20 -12 -34 -27 -31 -33 3 -5 0 -8
-8 -6 -12 3 -105 -38 -118 -52 -13 -14 -108 -70 -118 -70 -7 0 -12 -4 -12 -9
0 -5 -8 -11 -17 -14 -10 -2 -26 -8 -36 -12 -17 -7 -18 -6 -6 14 8 11 19 21 26
21 7 0 13 3 13 8 0 4 14 13 32 21 17 8 42 24 55 35 14 12 41 30 61 41 48 27
156 96 162 105 3 4 30 20 60 36 30 16 57 32 60 35 3 3 21 14 40 24 19 10 37
21 40 25 5 8 161 90 170 90 3 0 -7 -11 -21 -23z"/>
<path d="M1654 5412 c-200 -69 -373 -348 -439 -709 -25 -135 -31 -511 -11
-636 29 -175 99 -342 168 -401 90 -78 201 -96 383 -63 339 61 749 148 762 161
2 1 -4 17 -13 35 -30 60 6 170 62 191 39 15 72 12 83 -8 13 -24 -2 -48 -36
-57 -53 -13 -67 -58 -32 -107 18 -24 26 -28 47 -23 45 11 51 31 52 164 l0 123
-52 -6 c-29 -3 -145 -10 -258 -16 -113 -5 -244 -13 -292 -16 -139 -10 -105 11
40 25 416 39 913 63 847 41 -16 -5 -72 -13 -122 -16 l-93 -7 0 -73 c0 -40 -4
-76 -10 -79 -6 -4 -10 22 -10 69 0 61 -3 76 -15 76 -16 0 -17 -15 -19 -175 -1
-38 -7 -80 -14 -92 -14 -26 -13 -27 22 -13 24 9 26 15 26 65 0 34 4 55 11 55
8 0 10 -20 7 -62 -3 -35 -3 -58 -1 -51 3 7 11 9 19 6 24 -9 44 17 44 57 0 21
7 51 16 66 15 27 15 27 10 4 -4 -14 -9 -46 -13 -72 -5 -44 -4 -47 16 -41 17 4
21 13 21 43 0 39 23 70 53 70 10 0 17 8 17 20 0 22 -28 27 -60 10 -16 -8 -18
-7 -14 4 9 22 33 27 62 13 36 -17 34 -46 -3 -67 -23 -13 -31 -24 -33 -52 -3
-33 -1 -35 22 -31 14 3 23 9 20 15 -3 5 5 6 20 2 17 -4 26 -2 26 6 0 6 4 8 10
5 5 -3 13 7 16 22 17 68 64 103 138 103 35 0 51 -6 71 -26 15 -15 24 -33 20
-41 -4 -13 1 -14 26 -9 17 3 37 6 45 6 7 0 16 9 19 20 7 24 73 60 108 60 13 0
38 -7 55 -16 39 -19 97 -10 116 18 10 14 15 16 19 6 3 -8 19 2 46 31 23 24 40
49 37 56 -2 7 2 16 10 19 15 6 21 106 7 120 -4 3 -8 14 -9 23 -7 45 -59 94
-159 148 -27 15 -64 38 -82 51 -17 13 -37 24 -43 24 -6 0 -19 8 -30 18 -10 9
-36 26 -57 37 -21 11 -52 30 -69 42 -17 13 -38 23 -46 23 -9 0 -18 7 -22 15
-3 8 -10 15 -16 15 -6 0 -8 -4 -5 -10 3 -5 1 -10 -4 -10 -6 0 -11 7 -11 15 0
15 -75 68 -97 68 -7 0 -13 4 -13 9 0 5 -10 13 -22 18 -13 5 -36 18 -52 29 -17
11 -35 17 -40 14 -6 -3 -8 -2 -3 2 4 5 -11 19 -34 32 -46 26 -53 28 -43 11 4
-7 3 -8 -5 -4 -6 4 -9 11 -6 16 3 5 -20 22 -52 37 -32 15 -62 33 -68 39 -20
22 -277 172 -660 383 -33 19 -82 49 -109 69 -116 82 -199 99 -302 64z m492
-420 c-23 -5 -66 6 -66 17 0 4 19 3 42 -3 23 -6 34 -12 24 -14z m113 -38 c10
-9 -35 -3 -49 6 -11 8 -7 9 15 4 17 -4 32 -8 34 -10z m166 -55 c42 -22 27 -20
-40 5 -25 9 -32 15 -20 16 12 0 39 -9 60 -21z m-660 -174 c125 -17 621 -122
675 -144 l25 -10 -28 0 c-16 -1 -130 20 -255 45 -125 25 -236 47 -247 48 -11
2 -27 6 -35 9 -8 3 -56 15 -105 27 -50 12 -97 26 -105 31 -12 8 -11 9 5 5 11
-3 43 -8 70 -11z m1066 -174 c52 -17 180 -60 284 -96 105 -37 222 -77 260 -90
39 -13 88 -31 110 -41 l40 -19 -34 -3 c-19 -2 -37 0 -40 5 -3 5 -26 14 -51 20
-25 6 -69 20 -99 32 -30 11 -57 19 -59 16 -3 -2 -14 1 -26 7 -33 18 -179 68
-199 68 -10 0 -28 7 -40 15 -13 8 -32 16 -42 18 -11 2 -37 11 -59 20 -21 9
-42 17 -46 17 -7 0 -19 5 -100 43 -59 27 -3 20 101 -12z m-326 -91 c15 -16 15
-20 3 -20 -8 0 -23 9 -33 20 -15 16 -15 20 -3 20 8 0 23 -9 33 -20z m175 -53
c30 -21 15 -22 -20 -2 -14 8 -40 14 -57 15 -18 0 -33 4 -33 8 0 14 84 -3 110
-21z m63 -24 c-7 -2 -19 -2 -25 0 -7 3 -2 5 12 5 14 0 19 -2 13 -5z m-918 -23
c7 -11 -9 -11 -45 0 -24 8 -24 8 7 9 17 1 35 -3 38 -9z m88 -17 c-7 -2 -19 -2
-25 0 -7 3 -2 5 12 5 14 0 19 -2 13 -5z m62 -3 c3 -5 1 -10 -4 -10 -6 0 -11 5
-11 10 0 6 2 10 4 10 3 0 8 -4 11 -10z m132 -16 c-3 -3 -12 -4 -19 -1 -8 3 -5
6 6 6 11 1 17 -2 13 -5z m41 -223 c8 -5 -24 -11 -79 -14 -127 -10 -684 -9
-675 1 16 15 731 28 754 13z m165 -168 c-7 -2 -19 -2 -25 0 -7 3 -2 5 12 5 14
0 19 -2 13 -5z m462 -103 c3 -5 1 -10 -4 -10 -6 0 -11 5 -11 10 0 6 2 10 4 10
3 0 8 -4 11 -10z"/>
<path d="M6135 5253 c-64 -14 -157 -47 -170 -60 -8 -8 -15 -12 -15 -9 0 9
-105 -48 -197 -107 -220 -140 -263 -167 -331 -206 -41 -24 -70 -47 -66 -53 4
-6 -1 -8 -15 -3 -12 4 -21 2 -21 -4 0 -6 -3 -10 -7 -9 -14 4 -53 -13 -53 -23
0 -5 -3 -8 -7 -7 -13 2 -46 -14 -79 -39 -17 -13 -36 -23 -43 -23 -7 0 -9 -4
-6 -10 3 -5 0 -7 -8 -4 -8 3 -23 -5 -33 -19 -11 -13 -25 -22 -31 -20 -7 3 -24
-7 -38 -21 -14 -14 -25 -21 -25 -16 0 4 -18 -1 -39 -13 -22 -12 -37 -26 -34
-31 4 -5 1 -6 -4 -3 -6 4 -36 -9 -66 -29 -31 -20 -58 -36 -61 -35 -3 0 -33
-15 -67 -34 -33 -19 -65 -35 -70 -35 -5 0 -9 -7 -9 -16 0 -9 -6 -14 -12 -11
-7 2 -24 -4 -37 -14 -13 -11 -30 -19 -37 -19 -8 0 -14 -4 -14 -10 0 -5 -6 -10
-12 -10 -12 0 -63 -66 -63 -81 0 -4 -3 -11 -7 -15 -24 -24 8 -142 47 -174 17
-14 17 -14 7 7 -25 45 -8 108 39 147 17 14 38 19 74 19 68 -2 94 -6 89 -15 -3
-4 5 -21 17 -37 29 -39 27 -100 -3 -141 -28 -39 -33 -32 -12 19 19 48 13 81
-19 112 -36 34 -64 41 -102 25 -35 -15 -55 -42 -55 -75 0 -89 117 -124 135
-40 6 24 3 36 -13 51 -28 29 -62 16 -62 -23 0 -34 27 -41 32 -7 3 18 5 19 15
6 11 -12 9 -19 -7 -38 -19 -22 -21 -22 -45 -6 -52 34 -22 116 43 116 29 0 72
-46 72 -77 0 -35 -27 -81 -52 -89 -18 -6 -4 -11 60 -25 46 -10 105 -20 130
-21 26 -2 49 -6 53 -10 3 -4 19 -3 35 4 36 13 72 6 103 -21 12 -11 44 -22 72
-26 43 -6 51 -4 67 15 23 28 92 37 147 18 34 -11 40 -18 43 -45 2 -20 10 -34
20 -37 9 -3 134 -25 277 -51 143 -25 305 -54 360 -65 55 -10 122 -21 148 -25
26 -3 91 -17 144 -31 145 -37 220 -41 268 -16 111 56 170 168 205 383 28 180
-1 361 -121 741 -45 143 -89 219 -173 295 -110 100 -253 150 -361 126z m-315
-477 c0 -3 -4 -8 -10 -11 -5 -3 -10 -1 -10 4 0 6 5 11 10 11 6 0 10 -2 10 -4z
m-57 -33 c-7 -2 -21 -2 -30 0 -10 3 -4 5 12 5 17 0 24 -2 18 -5z m555 -8 c-17
-18 -781 -175 -849 -175 -43 0 -5 18 71 33 41 9 150 32 242 51 297 63 551 106
536 91z m-688 -35 c-19 -11 -44 -19 -55 -19 -11 0 -3 6 18 14 21 7 41 16 44
19 4 3 11 6 17 6 6 -1 -5 -9 -24 -20z m-90 -30 c-8 -5 -22 -10 -30 -10 -13 0
-13 1 0 10 8 5 22 10 30 10 13 0 13 -1 0 -10z m-90 -40 c-19 -13 -30 -13 -30
0 0 6 10 10 23 10 18 0 19 -2 7 -10z m-67 -27 c-7 -2 -21 -2 -30 0 -10 3 -4 5
12 5 17 0 24 -2 18 -5z m927 -55 c-104 -20 -146 -25 -160 -17 -10 5 4 9 40 9
30 1 64 5 75 10 11 5 36 8 55 8 33 0 33 -1 -10 -10z m-312 -48 c-14 -4 -32
-11 -40 -15 -7 -3 -4 1 6 9 11 9 29 16 40 15 17 -1 16 -2 -6 -9z m-211 -26
c-3 -3 -12 -4 -19 -1 -8 3 -5 6 6 6 11 1 17 -2 13 -5z m-249 -79 c-9 -9 -219
-41 -448 -69 -168 -20 -227 -24 -240 -16 -12 7 158 37 390 68 137 19 310 28
298 17z m877 -124 c23 -7 6 -10 -70 -11 -240 -4 -365 4 -365 23 0 12 389 2
435 -12z m-1145 -55 c-8 -8 -42 -17 -75 -20 l-60 -6 50 15 c28 8 56 13 63 10
6 -2 12 0 12 5 0 6 5 10 12 10 8 0 8 -4 -2 -14z m628 -33 c-16 -2 -40 -2 -55
0 -16 2 -3 4 27 4 30 0 43 -2 28 -4z m125 -10 c-7 -2 -21 -2 -30 0 -10 3 -4 5
12 5 17 0 24 -2 18 -5z m122 -13 c3 -6 -1 -7 -9 -4 -18 7 -21 14 -7 14 6 0 13
-4 16 -10z"/>
<path d="M4537 3993 c-15 -2 -25 -9 -21 -14 3 -6 3 -21 0 -35 -5 -20 -13 -24
-41 -24 -19 0 -35 5 -35 10 0 6 11 10 24 10 27 0 41 14 31 30 -8 13 -65 -16
-65 -34 0 -8 -10 -16 -21 -19 -15 -4 -20 -11 -15 -22 3 -9 2 -13 -4 -10 -12 8
-24 -38 -16 -63 14 -44 62 -36 74 11 4 17 13 32 19 34 20 7 -12 -80 -33 -88
-30 -12 -39 -10 -62 11 l-22 21 0 -24 c0 -33 18 -47 61 -47 56 0 96 48 85 102
-5 26 -4 29 9 18 21 -17 19 -47 -6 -86 -26 -42 -47 -54 -94 -54 -43 0 -43 -3
10 -85 20 -31 40 -53 46 -49 6 3 9 0 8 -7 -5 -30 51 -115 66 -101 5 4 5 2 2
-5 -7 -11 75 -130 99 -145 7 -4 15 -19 18 -33 4 -14 11 -25 16 -25 6 0 10 -7
10 -15 0 -7 8 -19 18 -24 9 -6 13 -11 9 -11 -4 0 4 -12 19 -27 14 -16 33 -41
41 -58 8 -16 31 -53 51 -81 20 -28 65 -91 98 -140 74 -107 162 -227 198 -270
14 -18 26 -35 26 -38 0 -4 35 -55 78 -114 43 -59 118 -165 166 -237 49 -71
100 -143 115 -159 144 -158 449 -26 645 278 31 49 92 133 134 188 152 197 179
237 219 314 118 229 145 444 74 589 -76 154 -242 231 -621 285 -141 20 -305
49 -519 91 l-104 20 -19 -21 c-31 -33 -78 -23 -78 16 0 13 -4 24 -10 24 -15 0
-12 -29 7 -60 14 -24 24 -30 62 -32 36 -2 48 -8 55 -24 12 -27 81 -52 71 -26
-5 14 -4 14 13 -1 20 -18 57 -24 47 -7 -4 6 -1 9 6 8 18 -4 23 30 8 48 -7 9
-23 14 -36 11 -12 -2 -20 0 -17 4 8 14 41 10 58 -7 22 -22 20 -50 -6 -75 l-23
-22 25 6 c14 4 31 1 40 -7 14 -13 185 -58 328 -86 65 -13 100 -35 40 -26 -18
3 -55 8 -83 11 -73 8 -285 54 -320 70 -31 14 -76 26 -85 22 -3 -1 -19 8 -37
21 -19 14 -34 18 -38 12 -3 -5 -25 -10 -49 -10 -78 0 -146 71 -146 152 0 21
-5 38 -11 38 -5 0 -7 -5 -3 -11 5 -8 1 -8 -14 0 -11 6 -23 11 -26 11 -3 0 -6
-34 -6 -76 0 -84 -11 -114 -41 -114 -27 0 -39 37 -39 125 0 65 -2 74 -20 80
-33 11 -40 -3 -40 -81 0 -42 -5 -84 -10 -95 -11 -19 -50 -27 -50 -9 0 5 6 7
14 4 21 -8 25 4 27 107 2 93 2 94 -22 94 -23 0 -23 -1 -21 -95 1 -75 -1 -90
-9 -70 -6 14 -8 42 -5 62 8 48 -10 88 -40 88 -28 0 -34 -16 -34 -103 0 -83 -8
-100 -41 -95 -23 3 -24 7 -27 95 -2 67 1 100 12 122 l15 29 -37 6 c-20 3 -42
6 -48 6 -7 0 -11 -45 -12 -129 l-1 -129 27 -11 c15 -6 36 -16 47 -23 10 -7 78
-51 150 -97 71 -46 143 -92 158 -103 16 -11 49 -34 75 -51 64 -42 133 -99 128
-104 -6 -7 -60 23 -179 98 -59 38 -110 69 -112 69 -5 0 -117 79 -142 100 -7 5
-16 10 -21 10 -9 0 -56 34 -117 85 -16 13 -40 25 -51 25 -12 0 -25 7 -28 16
-10 26 -7 104 4 104 6 0 10 -23 10 -51 0 -43 3 -50 18 -47 14 3 17 17 20 98 3
108 -2 140 -23 140 -12 0 -15 -14 -15 -65 0 -41 -4 -65 -11 -65 -8 0 -10 24
-7 75 2 47 0 74 -7 74 -5 -1 -22 -4 -38 -6z m939 -214 c3 -6 1 -16 -5 -22 -9
-9 -11 -8 -6 6 4 10 2 17 -4 17 -6 0 -11 -10 -12 -22 0 -13 -3 -17 -6 -10 -11
29 17 56 33 31z m-321 -179 c8 -13 -15 -13 -35 0 -12 8 -11 10 7 10 12 0 25
-4 28 -10z m210 -31 c10 -16 -1 -22 -26 -14 -17 6 -19 9 -8 16 19 12 26 11 34
-2z m95 -29 c18 -12 2 -12 -25 0 -13 6 -15 9 -5 9 8 0 22 -4 30 -9z m88 -17
c-10 -2 -26 -2 -35 0 -10 3 -2 5 17 5 19 0 27 -2 18 -5z m362 -149 c131 -16
355 -51 379 -60 40 -14 -13 -12 -175 6 -216 24 -433 58 -454 71 -17 11 58 6
250 -17z m-999 -51 c13 -16 12 -17 -3 -4 -17 13 -22 21 -14 21 2 0 10 -8 17
-17z m384 -153 c3 -5 1 -10 -4 -10 -6 0 -11 5 -11 10 0 6 2 10 4 10 3 0 8 -4
11 -10z m635 -10 c0 -5 -4 -10 -9 -10 -6 0 -13 5 -16 10 -3 6 1 10 9 10 9 0
16 -4 16 -10z m105 -34 c19 -8 35 -17 35 -20 0 -7 -63 13 -74 24 -14 14 -1 13
39 -4z m-587 -52 c30 -14 51 -34 37 -34 -3 0 -23 11 -43 25 -42 29 -39 32 6 9z
m779 -30 c-3 -3 -12 -4 -19 -1 -8 3 -5 6 6 6 11 1 17 -2 13 -5z m-912 -153
c39 -25 75 -48 80 -51 6 -3 44 -27 84 -55 40 -27 80 -54 89 -60 23 -15 151
-106 204 -145 120 -89 -16 -18 -174 91 -31 21 -61 39 -66 39 -6 0 -12 4 -14 8
-1 4 -46 36 -98 71 -99 66 -220 158 -220 167 0 7 35 -13 115 -65z m160 -262
c11 -16 1 -19 -13 -3 -7 8 -8 14 -3 14 5 0 13 -5 16 -11z m120 -109 c3 -5 1
-10 -4 -10 -6 0 -11 5 -11 10 0 6 2 10 4 10 3 0 8 -4 11 -10z"/>
<path d="M2562 3965 c-29 -21 -52 -66 -52 -104 0 -42 30 -103 48 -96 7 3 21 5
29 5 11 0 8 6 -10 20 -54 43 -36 121 35 151 16 6 27 17 25 23 -6 18 -50 18
-75 1z"/>
<path d="M3054 3951 c-37 -33 -52 -91 -22 -83 10 2 18 10 18 17 0 22 52 56 79
53 23 -3 41 -38 18 -38 -5 0 -8 -2 -5 -5 7 -8 68 16 68 26 0 6 -12 21 -26 34
-38 35 -89 33 -130 -4z"/>
<path d="M3373 3966 c-13 -6 -25 -17 -28 -25 -4 -10 -2 -11 8 -3 7 6 22 9 33
6 24 -6 74 11 74 26 0 13 -58 11 -87 -4z"/>
<path d="M4950 3976 c0 -2 13 -6 29 -8 17 -2 28 -1 25 4 -5 8 -54 12 -54 4z"/>
<path d="M5213 3960 c-18 -11 -33 -23 -33 -26 0 -3 24 -3 53 0 45 6 54 4 69
-14 20 -22 33 -25 43 -10 11 18 -4 47 -31 58 -36 17 -64 15 -101 -8z"/>
<path d="M3538 3953 c-21 -5 -24 -19 -5 -25 8 -3 12 -33 12 -104 l0 -99 -30 0
-30 0 -3 80 c-4 106 -25 131 -86 104 -49 -23 -37 -105 17 -116 15 -3 32 -14
37 -24 11 -20 3 -48 -14 -50 -73 -8 -146 59 -146 135 0 14 -4 27 -9 30 -15 9
-97 -20 -120 -43 -23 -23 -51 -27 -69 -9 -15 15 -24 6 -17 -15 8 -19 36 -27
106 -27 63 0 81 -13 68 -47 -11 -30 -83 -40 -152 -22 -48 13 -84 46 -99 91 -3
7 -9 8 -19 3 -8 -5 -21 -10 -29 -12 -71 -10 -77 -13 -73 -37 7 -33 -22 -59
-49 -45 -11 6 -22 19 -25 29 -4 15 -10 16 -51 7 -26 -5 -56 -16 -67 -23 -11
-8 -35 -14 -55 -14 -33 0 -71 -7 -245 -45 -38 -9 -140 -29 -225 -46 -431 -82
-603 -159 -678 -303 -23 -45 -26 -62 -26 -141 1 -103 19 -166 91 -310 37 -75
203 -339 222 -355 4 -3 33 -41 65 -85 168 -230 419 -365 552 -297 57 29 250
235 238 254 -3 5 -2 7 3 6 5 -2 47 40 93 92 45 52 109 124 140 160 154 175
180 206 180 217 0 6 14 21 30 33 17 12 30 26 30 31 0 5 17 26 38 47 47 48 110
122 162 192 22 30 62 78 88 105 26 28 63 70 82 95 19 25 50 60 68 79 17 20 32
41 32 48 0 6 6 16 13 20 8 4 16 16 20 26 3 9 13 17 21 17 13 0 17 5 27 35 2 6
15 21 29 34 14 13 24 27 23 32 -2 5 6 13 17 19 11 6 20 17 20 25 0 8 5 15 10
15 17 0 12 152 -6 178 -34 48 -57 19 -55 -68 3 -74 -11 -110 -43 -110 -20 0
-25 6 -30 38 -4 20 -2 71 3 112 6 41 11 78 11 81 0 7 -68 8 -92 2z m-533 -323
c-3 -5 -11 -10 -16 -10 -6 0 -7 5 -4 10 3 6 11 10 16 10 6 0 7 -4 4 -10z
m-325 -35 c0 -6 -97 -50 -145 -64 -42 -13 -156 -53 -215 -76 -56 -21 -474
-156 -595 -191 -13 -4 -17 -3 -10 4 12 11 229 94 390 147 61 21 126 43 145 50
19 7 101 34 183 60 81 26 147 51 147 57 0 6 6 8 14 5 8 -3 27 -2 43 3 35 10
43 11 43 5z m215 -5 c-3 -5 -13 -10 -21 -10 -8 0 -12 5 -9 10 3 6 13 10 21 10
8 0 12 -4 9 -10z m-170 -56 c14 -6 10 -10 -16 -21 -17 -7 -40 -11 -50 -8 -10
3 -21 0 -26 -8 -7 -12 -118 -57 -139 -57 -14 1 76 40 91 40 6 0 22 9 35 20 13
11 31 20 42 20 10 0 18 5 18 10 0 11 20 13 45 4z m215 -194 c-14 -11 -31 -20
-37 -20 -31 0 -403 -181 -598 -290 -99 -56 -135 -73 -140 -69 -3 4 54 43 165
115 83 52 439 234 460 234 6 0 30 9 53 19 46 21 72 28 102 30 18 0 18 -1 -5
-19z m185 10 c-3 -5 -12 -10 -20 -10 -8 0 -18 -6 -22 -13 -4 -8 -16 -16 -25
-20 -26 -9 -12 15 20 35 31 18 56 23 47 8z m-145 -74 c0 -3 -4 -8 -10 -11 -5
-3 -10 -1 -10 4 0 6 5 11 10 11 6 0 10 -2 10 -4z m-1110 -196 c0 -5 -7 -7 -15
-4 -8 4 -15 8 -15 10 0 2 7 4 15 4 8 0 15 -4 15 -10z m580 -80 c-8 -5 -19 -10
-25 -10 -5 0 -3 5 5 10 8 5 20 10 25 10 6 0 3 -5 -5 -10z m336 -85 c-22 -19
-45 -35 -52 -35 -7 0 -14 -3 -16 -8 -3 -7 -176 -123 -264 -176 -215 -131 -261
-156 -249 -137 16 27 585 390 610 390 6 0 -8 -15 -29 -34z m-446 11 c0 -2 -7
-7 -16 -10 -8 -3 -12 -2 -9 4 6 10 25 14 25 6z m470 -120 c0 -3 -11 -17 -25
-32 -14 -15 -25 -23 -25 -19 0 5 10 19 22 32 21 23 28 27 28 19z"/>
<path d="M4752 3934 c-17 -47 -25 -173 -12 -190 22 -25 30 -4 30 76 0 69 3 82
22 100 16 15 30 19 50 15 17 -4 28 -2 28 4 0 6 -8 11 -17 11 -10 0 -34 3 -54
6 -32 6 -37 3 -47 -22z"/>
<path d="M3650 3935 c-15 -18 -23 -164 -11 -184 18 -28 31 2 31 72 0 48 5 80
15 93 22 33 -10 50 -35 19z"/>
<path d="M3471 3918 c5 -9 14 -20 19 -23 6 -3 10 -42 10 -86 0 -60 3 -80 13
-77 16 6 22 143 6 180 -8 20 -18 27 -34 26 -19 -2 -22 -6 -14 -20z"/>
<path d="M3090 3905 c-21 -25 -1 -31 23 -7 17 18 18 22 5 22 -8 0 -21 -7 -28
-15z"/>
<path d="M5020 3828 c4 -74 8 -93 20 -93 12 0 16 18 18 88 2 51 -1 87 -7 87
-5 0 -15 2 -23 5 -10 4 -12 -13 -8 -87z"/>
<path d="M3331 3899 c-21 -8 -23 -14 -19 -53 3 -24 15 -58 27 -75 19 -26 29
-31 62 -31 49 0 54 26 7 38 -40 10 -60 44 -56 95 2 20 3 37 3 36 0 0 -11 -5
-24 -10z"/>
<path d="M5160 3848 c1 -62 34 -99 97 -108 55 -9 67 -5 32 10 -22 10 -22 10 8
7 18 -2 30 0 27 5 -3 4 -20 8 -38 8 -47 0 -85 33 -92 81 -9 55 -34 53 -34 -3z"/>
<path d="M5257 3863 c-12 -11 -8 -23 7 -23 8 0 16 7 20 15 5 15 -14 21 -27 8z"/>
<path d="M3031 3821 c-21 -13 25 -69 69 -82 50 -15 135 -8 135 11 0 11 -17 16
-72 21 -71 5 -103 19 -103 45 0 16 -9 17 -29 5z"/>
<path d="M2827 3765 c-7 -16 8 -29 23 -20 15 9 12 35 -4 35 -8 0 -16 -7 -19
-15z"/>
<path d="M3852 3729 c-27 -10 -32 -15 -101 -94 -28 -32 -48 -62 -45 -66 3 -5
-2 -9 -10 -9 -9 0 -22 -12 -30 -27 -8 -16 -28 -41 -45 -58 -17 -16 -31 -33
-31 -37 0 -5 -8 -16 -17 -27 -10 -10 -33 -36 -51 -57 -18 -22 -48 -57 -67 -79
-19 -22 -35 -43 -35 -46 0 -3 -23 -30 -52 -60 -28 -30 -70 -79 -92 -109 -22
-30 -44 -58 -49 -61 -4 -3 -5 -14 -1 -25 4 -14 3 -15 -4 -6 -7 11 -16 7 -40
-19 -16 -18 -28 -38 -25 -46 3 -7 -1 -13 -9 -13 -7 0 -22 -10 -32 -22 -61 -73
-162 -185 -243 -270 -242 -256 -344 -445 -313 -581 37 -168 140 -302 325 -422
210 -138 407 -195 668 -195 149 0 296 25 382 66 106 51 170 141 200 283 23
113 13 806 -19 1306 -3 39 -7 111 -10 160 -21 377 -25 407 -48 433 -13 14 -16
21 -8 17 13 -8 13 -6 1 8 -7 9 -17 14 -22 11 -5 -3 -9 2 -9 11 0 19 -41 37
-54 24 -15 -14 -43 -11 -60 7 -12 12 -16 12 -16 2 0 -9 -3 -10 -8 -2 -4 8 -15
8 -30 3z m-102 -119 c0 -5 -5 -10 -11 -10 -5 0 -7 5 -4 10 3 6 8 10 11 10 2 0
4 -4 4 -10z m-4 -202 c-26 -51 -61 -115 -77 -143 -16 -27 -34 -61 -39 -74 -6
-13 -19 -35 -30 -49 -11 -13 -20 -33 -20 -43 0 -11 -5 -19 -10 -19 -6 0 -14
-8 -17 -17 -4 -9 -26 -45 -49 -81 -24 -35 -46 -72 -49 -83 -4 -10 -11 -19 -16
-19 -5 0 -9 -6 -9 -14 0 -7 -7 -19 -15 -26 -8 -7 -15 -22 -15 -33 0 -11 -3
-18 -6 -14 -4 3 -15 -4 -25 -16 l-18 -22 8 31 c5 18 25 57 45 88 20 31 36 59
36 62 0 26 339 579 348 569 3 -3 -16 -47 -42 -97z m20 -260 c-18 -26 -22 -17
-5 14 6 11 13 17 16 15 3 -3 -2 -16 -11 -29z m175 -181 c-13 -13 -15 31 -3 60
5 14 8 10 10 -16 2 -18 -1 -38 -7 -44z m-18 -137 c-7 -28 -13 -25 -13 6 0 14
4 23 9 20 5 -3 7 -15 4 -26z m-23 -95 c-7 -60 -7 -60 -9 -13 -1 41 7 84 14 76
2 -2 0 -30 -5 -63z m-396 -197 c-41 -137 -294 -714 -301 -691 -7 20 219 570
275 671 26 46 37 55 26 20z m495 -352 c1 -165 -2 -237 -9 -230 -14 14 -26 492
-14 559 l8 50 7 -70 c4 -38 7 -178 8 -309z m-809 221 c0 -2 -12 -14 -27 -28
l-26 -24 19 27 c16 23 34 36 34 25z m-63 -90 c-6 -15 -15 -27 -19 -27 -12 0
-10 8 8 36 21 31 28 26 11 -9z m559 -3 c-4 -9 -9 -15 -11 -12 -3 3 -3 13 1 22
4 9 9 15 11 12 3 -3 3 -13 -1 -22z m-606 -84 c0 -5 -5 -10 -11 -10 -5 0 -7 5
-4 10 3 6 8 10 11 10 2 0 4 -4 4 -10z m757 -22 c-3 -7 -5 -2 -5 12 0 14 2 19
5 13 2 -7 2 -19 0 -25z m-789 -23 c-6 -14 -13 -24 -14 -22 -6 6 9 47 17 47 5
0 3 -11 -3 -25z m574 -17 c-8 -8 -9 -4 -5 13 4 13 8 18 11 10 2 -7 -1 -18 -6
-23z m218 -40 c0 -25 -3 -29 -10 -18 -13 20 -13 50 0 50 6 0 10 -15 10 -32z
m-837 -23 c-3 -9 -8 -14 -10 -11 -3 3 -2 9 2 15 9 16 15 13 8 -4z m827 -62
c-4 -42 -5 -44 -8 -15 -3 30 2 62 10 62 2 0 1 -21 -2 -47z"/>
<path d="M3928 3733 c7 -3 16 -2 19 1 4 3 -2 6 -13 5 -11 0 -14 -3 -6 -6z"/>
<path d="M4207 3696 c-9 -9 -19 -17 -22 -16 -20 1 -25 -1 -25 -11 0 -6 -7 -18
-16 -27 -14 -14 -16 -33 -9 -147 39 -710 58 -1226 59 -1580 1 -251 2 -262 25
-313 53 -117 192 -185 411 -199 338 -21 626 118 738 357 32 67 36 84 36 160 1
156 -53 266 -271 557 -46 62 -116 163 -155 225 -39 62 -83 129 -98 148 -15 19
-29 40 -31 45 -12 29 -115 173 -121 169 -5 -3 -8 1 -8 8 0 22 -65 119 -74 111
-4 -4 -6 -3 -4 3 5 16 -54 104 -65 97 -6 -4 -8 0 -4 9 3 10 -4 25 -19 39 -13
12 -22 24 -20 27 2 2 -9 22 -25 45 -16 23 -44 63 -62 90 -17 26 -35 47 -39 47
-5 0 -8 7 -8 16 0 8 -4 13 -8 10 -4 -2 -14 5 -22 17 -12 21 -12 21 6 7 10 -8
3 3 -16 23 -19 21 -33 41 -31 45 5 11 -41 41 -75 48 -21 4 -36 1 -47 -10z
m145 -330 c6 4 8 2 4 -4 -3 -6 0 -26 8 -44 22 -51 92 -274 111 -355 10 -40 20
-73 24 -73 3 0 7 -11 7 -25 1 -14 -4 -25 -10 -25 -7 0 -37 79 -70 183 -32 100
-62 192 -67 205 -5 13 -9 32 -9 43 0 13 -4 18 -12 13 -7 -4 -8 -3 -4 4 4 7 3
27 -3 46 -8 31 -2 64 7 37 2 -6 9 -8 14 -5z m365 -518 c-3 -8 -6 -5 -6 6 -1
11 2 17 5 13 3 -3 4 -12 1 -19z m-227 -239 c0 -5 -4 -9 -10 -9 -5 0 -10 7 -10
16 0 8 5 12 10 9 6 -3 10 -10 10 -16z m29 -84 c0 -5 -6 -1 -14 9 -8 11 -15 27
-15 35 1 17 29 -26 29 -44z m18 -57 c-3 -8 -6 -5 -6 6 -1 11 2 17 5 13 3 -3 4
-12 1 -19z m180 -95 c101 -146 210 -398 227 -523 6 -45 6 -45 -9 -15 -8 17
-14 38 -15 47 0 9 -4 19 -9 22 -5 3 -12 18 -15 33 -12 51 -110 267 -168 372
-53 95 -64 121 -54 121 2 0 21 -26 43 -57z m343 -361 c0 -15 -2 -15 -10 -2
-13 20 -13 33 0 25 6 -3 10 -14 10 -23z m-542 -67 c-3 -3 -9 2 -12 12 -6 14
-5 15 5 6 7 -7 10 -15 7 -18z m22 -46 c0 -6 -4 -7 -10 -4 -5 3 -10 11 -10 16
0 6 5 7 10 4 6 -3 10 -11 10 -16z m35 -97 c-5 -5 -25 43 -25 61 1 7 7 -3 16
-22 8 -19 12 -36 9 -39z m32 -74 c-3 -8 -6 -5 -6 6 -1 11 2 17 5 13 3 -3 4
-12 1 -19z"/>
</g>
</svg>
