<?xml version="1.0" encoding="UTF-8" standalone="no"?>
<!DOCTYPE svg PUBLIC "-//W3C//DTD SVG 1.1//EN" "http://www.w3.org/Graphics/SVG/1.1/DTD/svg11.dtd">
<svg width="100%" height="100%" viewBox="0 0 1578 1333" version="1.1" xmlns="http://www.w3.org/2000/svg" xmlns:xlink="http://www.w3.org/1999/xlink" xml:space="preserve" xmlns:serif="http://www.serif.com/" style="fill-rule:evenodd;clip-rule:evenodd;stroke-linejoin:round;stroke-miterlimit:2;">
    <g transform="matrix(12.3184,0,0,12.3184,-2871.56,-5686.17)">
        <g>
            <g transform="matrix(1.61916,-1.61916,-1.62528,-1.62528,426.533,2249.58)">
                <path d="M486.527,589.06L486.527,589.285L486.541,594.268C486.541,599.101 490.473,603.019 495.325,603.019L495.328,603.019C500.179,603.019 504.112,599.101 504.112,594.268L504.108,584.125C499.402,581.516 496.668,579.498 496.668,579.498C492.876,585.019 488.816,587.811 486.527,589.06Z" style="fill:rgb(255,205,106);"/>
            </g>
            <g transform="matrix(1.61916,-1.61916,-1.62528,-1.62528,426.533,2249.58)">
                <path d="M504.109,556.952L504.112,552.484C504.112,547.651 500.179,543.733 495.328,543.733L495.325,543.733C490.473,543.733 486.541,547.651 486.541,552.484L486.527,557.003L486.527,561.915C490.834,563.345 494.395,566.629 494.395,566.629C497.906,561.517 501.758,558.326 504.109,556.952Z" style="fill:rgb(151,108,251);"/>
            </g>
            <g transform="matrix(0.606061,0.856423,-0.856423,0.606061,500.915,19.6306)">
                <path d="M286.111,412.618L281.423,412.618L281.423,406.492L290.033,406.492C291.191,404.265 292.106,401.946 292.761,399.458L276.044,399.458L276.044,393.332L293.794,393.332C293.949,390.84 293.68,388.476 293.16,386.298L271.884,386.298L271.884,380.172L290.916,380.172C288.598,375.494 285.747,372.597 285.747,372.597L289.605,368.335C289.605,368.335 304.92,382.705 300.855,403.385C297.134,422.311 273.696,435.537 261.124,451.632L266.59,451.632L266.59,457.758L257.024,457.758C255.728,460.157 254.865,462.512 254.342,464.792L270.977,464.792L270.977,470.918L253.687,470.918C253.719,473.433 254.109,475.796 254.697,477.952L276.044,477.952L276.044,484.078L257.066,484.078C259.115,488.148 261.337,490.599 261.337,490.599L257.933,495.231C257.933,495.231 245.316,483.316 246.399,465.924C247.652,445.824 262.377,436.616 273.708,425.838C278.699,421.092 282.873,416.894 286.111,412.618Z" style="fill:rgb(253,75,81);"/>
            </g>
            <g transform="matrix(-0.606061,-0.856423,-0.856423,0.606061,894.42,445.351)">
                <path d="M286.111,484.38C283.558,487.752 280.422,491.075 276.763,494.657C278.692,496.493 281.607,499.245 283.602,501.017C291.797,493.125 298.939,484.891 300.855,475.147C304.92,454.467 289.605,440.097 289.605,440.097L285.747,444.359C285.747,444.359 288.598,447.256 290.916,451.934L281.285,451.934L281.285,458.06L293.16,458.06C293.68,460.238 293.949,462.602 293.794,465.094L276.898,465.094L276.898,471.22L292.761,471.22C292.106,473.708 291.191,476.027 290.033,478.254L271.831,478.254L271.831,484.38L286.111,484.38ZM261.124,523.394C264.01,519.699 267.468,516.156 271.129,512.661L264.191,506.168C255.452,514.096 247.316,522.973 246.399,537.686C245.316,555.078 257.933,566.993 257.933,566.993L261.337,562.361C261.337,562.361 259.115,559.91 257.066,555.84L266.452,555.84L266.452,549.714L254.697,549.714C254.109,547.558 253.719,545.195 253.687,542.68L271.831,542.68L271.831,536.554L254.342,536.554C254.865,534.274 255.728,531.919 257.024,529.52L275.991,529.52L275.991,523.394L261.124,523.394Z" style="fill:rgb(253,75,81);"/>
            </g>
        </g>
    </g>
</svg>
