<?xml version="1.0" encoding="UTF-8" standalone="no"?>
<!DOCTYPE svg PUBLIC "-//W3C//DTD SVG 1.1//EN" "http://www.w3.org/Graphics/SVG/1.1/DTD/svg11.dtd">
<svg width="100%" height="100%" viewBox="0 0 2560 532" version="1.1" xmlns="http://www.w3.org/2000/svg" xmlns:xlink="http://www.w3.org/1999/xlink" xml:space="preserve" xmlns:serif="http://www.serif.com/" style="fill-rule:evenodd;clip-rule:evenodd;stroke-linejoin:round;stroke-miterlimit:2;">
    <g transform="matrix(4.89308,0,0,4.89308,-1140.63,-2258.64)">
        <g transform="matrix(0.341494,0,0,0.341494,332.986,391.606)">
            <g transform="matrix(176.644,0,0,177.19,147.252,337.92)">
                <path d="M0.146,-0.604C0.213,-0.673 0.296,-0.708 0.394,-0.708C0.467,-0.708 0.531,-0.687 0.587,-0.646C0.643,-0.605 0.684,-0.551 0.71,-0.484L0.654,-0.473C0.632,-0.528 0.598,-0.571 0.552,-0.604C0.507,-0.637 0.454,-0.653 0.394,-0.653C0.311,-0.653 0.241,-0.624 0.185,-0.565C0.129,-0.506 0.101,-0.435 0.101,-0.35C0.101,-0.266 0.129,-0.194 0.184,-0.135C0.24,-0.076 0.31,-0.047 0.394,-0.047C0.47,-0.047 0.533,-0.072 0.582,-0.121C0.632,-0.171 0.661,-0.235 0.668,-0.312L0.392,-0.312L0.391,-0.362L0.724,-0.362L0.724,-0.346C0.724,-0.246 0.693,-0.162 0.632,-0.094C0.571,-0.027 0.491,0.007 0.394,0.007C0.295,0.007 0.212,-0.028 0.145,-0.097C0.078,-0.167 0.044,-0.251 0.044,-0.35C0.044,-0.449 0.078,-0.534 0.146,-0.604Z" style="fill:rgb(17,41,83);fill-rule:nonzero;"/>
            </g>
            <g transform="matrix(176.644,0,0,177.19,282.915,337.92)">
                <path d="M0.058,-0.53L0.113,-0.53L0.113,-0.41C0.13,-0.456 0.155,-0.488 0.189,-0.507C0.224,-0.526 0.259,-0.535 0.295,-0.535C0.31,-0.535 0.326,-0.534 0.343,-0.531L0.343,-0.474C0.325,-0.478 0.308,-0.48 0.292,-0.48C0.248,-0.48 0.207,-0.463 0.169,-0.43C0.132,-0.397 0.113,-0.341 0.113,-0.264L0.113,-0L0.058,-0L0.058,-0.53Z" style="fill:rgb(17,41,83);fill-rule:nonzero;"/>
            </g>
            <g transform="matrix(176.644,0,0,177.19,342.249,337.92)">
                <path d="M0.121,-0.46C0.173,-0.513 0.236,-0.539 0.311,-0.539C0.359,-0.539 0.402,-0.527 0.441,-0.502C0.48,-0.478 0.51,-0.446 0.531,-0.407L0.531,-0.53L0.586,-0.53L0.586,-0L0.531,-0L0.531,-0.124C0.51,-0.084 0.48,-0.052 0.441,-0.028C0.402,-0.004 0.358,0.008 0.311,0.008C0.236,0.008 0.173,-0.019 0.121,-0.072C0.069,-0.125 0.043,-0.19 0.043,-0.266C0.043,-0.342 0.069,-0.407 0.121,-0.46ZM0.16,-0.108C0.202,-0.065 0.253,-0.043 0.314,-0.043C0.375,-0.043 0.426,-0.065 0.469,-0.108C0.512,-0.152 0.533,-0.205 0.533,-0.266C0.533,-0.327 0.512,-0.38 0.469,-0.423C0.426,-0.466 0.375,-0.488 0.314,-0.488C0.253,-0.488 0.201,-0.466 0.159,-0.423C0.117,-0.38 0.096,-0.327 0.096,-0.266C0.096,-0.203 0.117,-0.151 0.16,-0.108Z" style="fill:rgb(17,41,83);fill-rule:nonzero;"/>
            </g>
            <g transform="matrix(176.644,0,0,177.19,456.185,337.92)">
                <path d="M0.058,-0.53L0.113,-0.53L0.113,-0.409C0.134,-0.448 0.164,-0.48 0.203,-0.503C0.242,-0.527 0.285,-0.539 0.333,-0.539C0.408,-0.539 0.471,-0.512 0.523,-0.458C0.575,-0.405 0.601,-0.341 0.601,-0.266C0.601,-0.189 0.575,-0.124 0.523,-0.071C0.471,-0.018 0.408,0.008 0.333,0.008C0.285,0.008 0.241,-0.004 0.202,-0.027C0.163,-0.051 0.134,-0.083 0.113,-0.123L0.113,0.21L0.058,0.21L0.058,-0.53ZM0.11,-0.266C0.11,-0.205 0.131,-0.152 0.174,-0.109C0.217,-0.065 0.268,-0.043 0.329,-0.043C0.39,-0.043 0.441,-0.064 0.484,-0.107C0.527,-0.15 0.548,-0.203 0.548,-0.266C0.548,-0.327 0.527,-0.38 0.484,-0.423C0.442,-0.466 0.39,-0.488 0.329,-0.488C0.268,-0.488 0.217,-0.466 0.174,-0.423C0.131,-0.38 0.11,-0.327 0.11,-0.266Z" style="fill:rgb(17,41,83);fill-rule:nonzero;"/>
            </g>
            <g transform="matrix(176.644,0,0,177.19,567.995,337.92)">
                <path d="M0.122,-0.46C0.174,-0.513 0.238,-0.539 0.313,-0.539C0.383,-0.539 0.443,-0.515 0.493,-0.468C0.543,-0.421 0.572,-0.364 0.579,-0.296C0.58,-0.286 0.581,-0.276 0.581,-0.266C0.581,-0.259 0.581,-0.253 0.58,-0.246L0.098,-0.246C0.101,-0.187 0.124,-0.139 0.165,-0.1C0.206,-0.062 0.256,-0.043 0.313,-0.043C0.352,-0.043 0.389,-0.052 0.423,-0.071C0.457,-0.09 0.484,-0.116 0.504,-0.149L0.558,-0.14C0.536,-0.095 0.503,-0.059 0.458,-0.032C0.413,-0.005 0.365,0.008 0.313,0.008C0.238,0.008 0.174,-0.019 0.121,-0.072C0.069,-0.125 0.043,-0.19 0.043,-0.266C0.043,-0.342 0.069,-0.407 0.122,-0.46ZM0.098,-0.292L0.524,-0.292C0.519,-0.347 0.497,-0.394 0.457,-0.431C0.418,-0.469 0.37,-0.488 0.313,-0.488C0.256,-0.488 0.207,-0.469 0.166,-0.431C0.126,-0.394 0.103,-0.347 0.098,-0.292Z" style="fill:rgb(17,41,83);fill-rule:nonzero;"/>
            </g>
            <g transform="matrix(176.644,0,0,177.19,673.971,337.92)">
                <path d="M0.025,-0.481L0.025,-0.53L0.151,-0.53L0.151,-0.549C0.151,-0.618 0.169,-0.662 0.204,-0.682C0.24,-0.702 0.276,-0.712 0.313,-0.712C0.339,-0.712 0.368,-0.708 0.399,-0.701L0.399,-0.655C0.368,-0.663 0.341,-0.667 0.317,-0.667C0.242,-0.667 0.205,-0.627 0.205,-0.548L0.205,-0.53L0.393,-0.53L0.393,-0.481L0.206,-0.481L0.207,-0L0.152,-0L0.151,-0.481L0.025,-0.481Z" style="fill:rgb(17,41,83);fill-rule:nonzero;"/>
            </g>
            <g transform="matrix(176.644,0,0,177.19,747.808,337.92)">
                <path d="M0.058,-0.53L0.113,-0.53L0.113,-0.41C0.13,-0.456 0.155,-0.488 0.189,-0.507C0.224,-0.526 0.259,-0.535 0.295,-0.535C0.31,-0.535 0.326,-0.534 0.343,-0.531L0.343,-0.474C0.325,-0.478 0.308,-0.48 0.292,-0.48C0.248,-0.48 0.207,-0.463 0.169,-0.43C0.132,-0.397 0.113,-0.341 0.113,-0.264L0.113,-0L0.058,-0L0.058,-0.53Z" style="fill:rgb(17,41,83);fill-rule:nonzero;"/>
            </g>
            <g transform="matrix(176.644,0,0,177.19,812.99,337.92)">
                <path d="M0.05,-0.214L0.05,-0.53L0.105,-0.53L0.105,-0.234C0.105,-0.174 0.122,-0.127 0.157,-0.093C0.192,-0.06 0.234,-0.043 0.284,-0.043C0.339,-0.043 0.385,-0.063 0.421,-0.104C0.458,-0.145 0.476,-0.197 0.476,-0.261L0.476,-0.53L0.531,-0.53L0.531,-0L0.476,-0L0.476,-0.113C0.459,-0.078 0.433,-0.048 0.398,-0.025C0.363,-0.002 0.323,0.009 0.276,0.009C0.214,0.009 0.161,-0.011 0.116,-0.051C0.072,-0.092 0.05,-0.146 0.05,-0.214Z" style="fill:rgb(17,41,83);fill-rule:nonzero;"/>
            </g>
            <g transform="matrix(176.644,0,0,177.19,917.21,337.92)">
                <path d="M0.125,-0.53L0.125,-0L0.07,-0L0.07,-0.53L0.125,-0.53ZM0.066,-0.707C0.075,-0.715 0.085,-0.719 0.098,-0.719C0.111,-0.719 0.122,-0.715 0.131,-0.706C0.14,-0.698 0.144,-0.688 0.144,-0.675C0.144,-0.662 0.14,-0.652 0.131,-0.643C0.122,-0.634 0.111,-0.63 0.098,-0.63C0.085,-0.63 0.075,-0.634 0.066,-0.643C0.057,-0.652 0.053,-0.662 0.053,-0.675C0.053,-0.688 0.057,-0.698 0.066,-0.707Z" style="fill:rgb(17,41,83);fill-rule:nonzero;"/>
            </g>
            <g transform="matrix(176.644,0,0,177.19,951.656,337.92)">
                <path d="M0.146,-0.53L0.146,-0.679L0.201,-0.697L0.201,-0.53L0.383,-0.53L0.383,-0.481L0.201,-0.481L0.201,-0.159C0.201,-0.106 0.212,-0.074 0.234,-0.061C0.257,-0.049 0.279,-0.043 0.302,-0.043C0.325,-0.043 0.351,-0.047 0.381,-0.055L0.381,-0.001C0.349,0.007 0.32,0.011 0.295,0.011C0.259,0.011 0.225,0 0.193,-0.021C0.162,-0.042 0.146,-0.088 0.146,-0.158L0.146,-0.481L0.026,-0.481L0.026,-0.53L0.146,-0.53Z" style="fill:rgb(17,41,83);fill-rule:nonzero;"/>
            </g>
        </g>
        <g transform="matrix(0.367017,0,0,0.367017,329.029,444.071)">
            <g transform="matrix(176.644,0,0,177.19,147.252,337.92)">
                <path d="M0.38,-0.7C0.446,-0.7 0.499,-0.682 0.539,-0.646C0.579,-0.611 0.599,-0.566 0.599,-0.513C0.599,-0.481 0.591,-0.451 0.576,-0.423C0.561,-0.396 0.541,-0.374 0.516,-0.357C0.554,-0.34 0.582,-0.317 0.601,-0.286C0.62,-0.256 0.629,-0.223 0.629,-0.188C0.629,-0.134 0.609,-0.089 0.568,-0.053C0.528,-0.018 0.474,-0 0.405,-0L0.055,-0L0.055,-0.7L0.38,-0.7ZM0.2,-0.288L0.2,-0.135L0.395,-0.135C0.419,-0.135 0.438,-0.142 0.453,-0.157C0.468,-0.172 0.476,-0.19 0.476,-0.211C0.476,-0.232 0.468,-0.25 0.453,-0.265C0.438,-0.28 0.419,-0.288 0.395,-0.288L0.2,-0.288ZM0.2,-0.565L0.2,-0.409L0.375,-0.409C0.399,-0.409 0.418,-0.417 0.433,-0.432C0.448,-0.447 0.456,-0.466 0.456,-0.487C0.456,-0.508 0.448,-0.527 0.433,-0.542C0.418,-0.557 0.399,-0.565 0.375,-0.565L0.2,-0.565Z" style="fill:rgb(17,41,83);fill-rule:nonzero;"/>
            </g>
            <g transform="matrix(176.644,0,0,177.19,263.66,337.92)">
                <path d="M0.2,-0.53L0.2,-0L0.055,-0L0.055,-0.53L0.2,-0.53ZM0.066,-0.719C0.083,-0.736 0.104,-0.744 0.129,-0.744C0.154,-0.744 0.175,-0.736 0.192,-0.719C0.209,-0.702 0.218,-0.682 0.218,-0.658C0.218,-0.634 0.209,-0.614 0.192,-0.598C0.175,-0.581 0.154,-0.573 0.129,-0.573C0.104,-0.573 0.083,-0.581 0.066,-0.597C0.049,-0.614 0.04,-0.634 0.04,-0.658C0.04,-0.682 0.049,-0.702 0.066,-0.719Z" style="fill:rgb(17,41,83);fill-rule:nonzero;"/>
            </g>
            <g transform="matrix(176.644,0,0,177.19,308.705,337.92)">
                <path d="M0.112,-0.459C0.165,-0.512 0.23,-0.539 0.305,-0.539C0.38,-0.539 0.444,-0.512 0.497,-0.458C0.551,-0.405 0.578,-0.341 0.578,-0.266C0.578,-0.191 0.551,-0.126 0.498,-0.072C0.445,-0.019 0.38,0.008 0.305,0.008C0.23,0.008 0.166,-0.019 0.112,-0.073C0.059,-0.127 0.032,-0.191 0.032,-0.266C0.032,-0.341 0.059,-0.405 0.112,-0.459ZM0.167,-0.266C0.167,-0.227 0.18,-0.194 0.207,-0.166C0.234,-0.138 0.266,-0.124 0.305,-0.124C0.344,-0.124 0.376,-0.138 0.403,-0.166C0.43,-0.194 0.443,-0.227 0.443,-0.266C0.443,-0.305 0.43,-0.338 0.403,-0.365C0.376,-0.393 0.344,-0.407 0.305,-0.407C0.266,-0.407 0.234,-0.393 0.207,-0.365C0.18,-0.338 0.167,-0.305 0.167,-0.266Z" style="fill:rgb(17,41,83);fill-rule:nonzero;"/>
            </g>
            <g transform="matrix(176.644,0,0,177.19,415.572,337.92)">
                <path d="M0.096,-0.495C0.137,-0.524 0.19,-0.539 0.256,-0.539C0.331,-0.539 0.399,-0.523 0.46,-0.491L0.46,-0.354C0.379,-0.395 0.311,-0.415 0.256,-0.415C0.233,-0.415 0.215,-0.411 0.203,-0.403C0.191,-0.396 0.185,-0.386 0.185,-0.375C0.185,-0.368 0.187,-0.362 0.191,-0.357C0.196,-0.352 0.203,-0.348 0.212,-0.344C0.222,-0.341 0.232,-0.338 0.241,-0.336C0.25,-0.334 0.263,-0.331 0.279,-0.327C0.296,-0.324 0.31,-0.321 0.321,-0.318C0.432,-0.289 0.487,-0.234 0.487,-0.153C0.487,-0.124 0.48,-0.098 0.466,-0.076C0.453,-0.054 0.435,-0.037 0.412,-0.025C0.39,-0.014 0.367,-0.005 0.342,-0C0.318,0.005 0.293,0.008 0.266,0.008C0.194,0.008 0.123,-0.012 0.053,-0.051L0.053,-0.195C0.079,-0.177 0.112,-0.16 0.152,-0.143C0.193,-0.126 0.231,-0.118 0.266,-0.118C0.314,-0.118 0.338,-0.131 0.338,-0.156C0.338,-0.17 0.329,-0.181 0.31,-0.189C0.291,-0.198 0.26,-0.207 0.216,-0.216C0.154,-0.229 0.108,-0.248 0.079,-0.273C0.05,-0.298 0.035,-0.331 0.035,-0.374C0.035,-0.425 0.055,-0.466 0.096,-0.495Z" style="fill:rgb(17,41,83);fill-rule:nonzero;"/>
            </g>
            <g transform="matrix(176.644,0,0,177.19,504.244,337.92)">
                <path d="M0.116,-0.46C0.169,-0.513 0.233,-0.539 0.308,-0.539C0.365,-0.539 0.416,-0.523 0.461,-0.491C0.506,-0.459 0.539,-0.417 0.559,-0.365L0.427,-0.327C0.416,-0.352 0.4,-0.371 0.379,-0.386C0.358,-0.401 0.335,-0.409 0.308,-0.409C0.269,-0.409 0.237,-0.395 0.21,-0.366C0.183,-0.337 0.17,-0.304 0.17,-0.265C0.17,-0.226 0.183,-0.193 0.21,-0.164C0.237,-0.136 0.269,-0.122 0.308,-0.122C0.335,-0.122 0.359,-0.129 0.38,-0.144C0.401,-0.159 0.416,-0.179 0.427,-0.203L0.559,-0.165C0.539,-0.114 0.506,-0.072 0.461,-0.04C0.416,-0.008 0.365,0.008 0.308,0.008C0.232,0.008 0.167,-0.019 0.114,-0.072C0.061,-0.126 0.035,-0.19 0.035,-0.265C0.035,-0.342 0.062,-0.407 0.116,-0.46Z" style="fill:rgb(17,41,83);fill-rule:nonzero;"/>
            </g>
            <g transform="matrix(176.644,0,0,177.19,608.641,337.92)">
                <path d="M0.2,-0.53L0.2,-0L0.055,-0L0.055,-0.53L0.2,-0.53ZM0.066,-0.719C0.083,-0.736 0.104,-0.744 0.129,-0.744C0.154,-0.744 0.175,-0.736 0.192,-0.719C0.209,-0.702 0.218,-0.682 0.218,-0.658C0.218,-0.634 0.209,-0.614 0.192,-0.598C0.175,-0.581 0.154,-0.573 0.129,-0.573C0.104,-0.573 0.083,-0.581 0.066,-0.597C0.049,-0.614 0.04,-0.634 0.04,-0.658C0.04,-0.682 0.049,-0.702 0.066,-0.719Z" style="fill:rgb(17,41,83);fill-rule:nonzero;"/>
            </g>
            <g transform="matrix(176.644,0,0,177.19,653.686,337.92)">
                <path d="M0.116,-0.46C0.169,-0.513 0.233,-0.539 0.308,-0.539C0.373,-0.539 0.43,-0.518 0.48,-0.477C0.53,-0.436 0.562,-0.384 0.575,-0.321C0.58,-0.301 0.582,-0.282 0.582,-0.263C0.582,-0.245 0.58,-0.228 0.576,-0.211L0.178,-0.211C0.186,-0.182 0.202,-0.159 0.225,-0.143C0.248,-0.128 0.276,-0.12 0.308,-0.12C0.359,-0.12 0.4,-0.135 0.433,-0.165L0.559,-0.129C0.538,-0.088 0.504,-0.054 0.456,-0.029C0.408,-0.004 0.359,0.008 0.308,0.008C0.232,0.008 0.167,-0.019 0.114,-0.072C0.061,-0.126 0.035,-0.19 0.035,-0.265C0.035,-0.342 0.062,-0.407 0.116,-0.46ZM0.178,-0.321L0.435,-0.321C0.427,-0.346 0.412,-0.368 0.389,-0.385C0.366,-0.402 0.339,-0.411 0.307,-0.411C0.275,-0.411 0.247,-0.402 0.224,-0.385C0.201,-0.368 0.186,-0.346 0.178,-0.321Z" style="fill:rgb(17,41,83);fill-rule:nonzero;"/>
            </g>
            <g transform="matrix(176.644,0,0,177.19,760.903,337.92)">
                <path d="M0.05,-0.53L0.195,-0.53L0.195,-0.481C0.235,-0.52 0.284,-0.539 0.343,-0.539C0.403,-0.539 0.455,-0.52 0.498,-0.481C0.541,-0.443 0.563,-0.392 0.563,-0.329L0.563,-0L0.418,-0L0.418,-0.292C0.418,-0.325 0.408,-0.352 0.387,-0.373C0.367,-0.394 0.342,-0.404 0.313,-0.404C0.278,-0.404 0.249,-0.391 0.227,-0.366C0.206,-0.341 0.195,-0.311 0.195,-0.274L0.195,-0L0.05,-0L0.05,-0.53Z" style="fill:rgb(17,41,83);fill-rule:nonzero;"/>
            </g>
            <g transform="matrix(176.644,0,0,177.19,867.417,337.92)">
                <path d="M0.116,-0.46C0.169,-0.513 0.233,-0.539 0.308,-0.539C0.365,-0.539 0.416,-0.523 0.461,-0.491C0.506,-0.459 0.539,-0.417 0.559,-0.365L0.427,-0.327C0.416,-0.352 0.4,-0.371 0.379,-0.386C0.358,-0.401 0.335,-0.409 0.308,-0.409C0.269,-0.409 0.237,-0.395 0.21,-0.366C0.183,-0.337 0.17,-0.304 0.17,-0.265C0.17,-0.226 0.183,-0.193 0.21,-0.164C0.237,-0.136 0.269,-0.122 0.308,-0.122C0.335,-0.122 0.359,-0.129 0.38,-0.144C0.401,-0.159 0.416,-0.179 0.427,-0.203L0.559,-0.165C0.539,-0.114 0.506,-0.072 0.461,-0.04C0.416,-0.008 0.365,0.008 0.308,0.008C0.232,0.008 0.167,-0.019 0.114,-0.072C0.061,-0.126 0.035,-0.19 0.035,-0.265C0.035,-0.342 0.062,-0.407 0.116,-0.46Z" style="fill:rgb(17,41,83);fill-rule:nonzero;"/>
            </g>
            <g transform="matrix(176.644,0,0,177.19,970.042,337.92)">
                <path d="M0.116,-0.46C0.169,-0.513 0.233,-0.539 0.308,-0.539C0.373,-0.539 0.43,-0.518 0.48,-0.477C0.53,-0.436 0.562,-0.384 0.575,-0.321C0.58,-0.301 0.582,-0.282 0.582,-0.263C0.582,-0.245 0.58,-0.228 0.576,-0.211L0.178,-0.211C0.186,-0.182 0.202,-0.159 0.225,-0.143C0.248,-0.128 0.276,-0.12 0.308,-0.12C0.359,-0.12 0.4,-0.135 0.433,-0.165L0.559,-0.129C0.538,-0.088 0.504,-0.054 0.456,-0.029C0.408,-0.004 0.359,0.008 0.308,0.008C0.232,0.008 0.167,-0.019 0.114,-0.072C0.061,-0.126 0.035,-0.19 0.035,-0.265C0.035,-0.342 0.062,-0.407 0.116,-0.46ZM0.178,-0.321L0.435,-0.321C0.427,-0.346 0.412,-0.368 0.389,-0.385C0.366,-0.402 0.339,-0.411 0.307,-0.411C0.275,-0.411 0.247,-0.402 0.224,-0.385C0.201,-0.368 0.186,-0.346 0.178,-0.321Z" style="fill:rgb(17,41,83);fill-rule:nonzero;"/>
            </g>
            <g transform="matrix(176.644,0,0,177.19,1078.15,337.92)">
                <path d="M0.096,-0.495C0.137,-0.524 0.19,-0.539 0.256,-0.539C0.331,-0.539 0.399,-0.523 0.46,-0.491L0.46,-0.354C0.379,-0.395 0.311,-0.415 0.256,-0.415C0.233,-0.415 0.215,-0.411 0.203,-0.403C0.191,-0.396 0.185,-0.386 0.185,-0.375C0.185,-0.368 0.187,-0.362 0.191,-0.357C0.196,-0.352 0.203,-0.348 0.212,-0.344C0.222,-0.341 0.232,-0.338 0.241,-0.336C0.25,-0.334 0.263,-0.331 0.279,-0.327C0.296,-0.324 0.31,-0.321 0.321,-0.318C0.432,-0.289 0.487,-0.234 0.487,-0.153C0.487,-0.124 0.48,-0.098 0.466,-0.076C0.453,-0.054 0.435,-0.037 0.412,-0.025C0.39,-0.014 0.367,-0.005 0.342,-0C0.318,0.005 0.293,0.008 0.266,0.008C0.194,0.008 0.123,-0.012 0.053,-0.051L0.053,-0.195C0.079,-0.177 0.112,-0.16 0.152,-0.143C0.193,-0.126 0.231,-0.118 0.266,-0.118C0.314,-0.118 0.338,-0.131 0.338,-0.156C0.338,-0.17 0.329,-0.181 0.31,-0.189C0.291,-0.198 0.26,-0.207 0.216,-0.216C0.154,-0.229 0.108,-0.248 0.079,-0.273C0.05,-0.298 0.035,-0.331 0.035,-0.374C0.035,-0.425 0.055,-0.466 0.096,-0.495Z" style="fill:rgb(17,41,83);fill-rule:nonzero;"/>
            </g>
        </g>
        <g>
            <g transform="matrix(1.61916,-1.61916,-1.62528,-1.62528,426.533,2249.58)">
                <path d="M486.527,589.06L486.527,589.285L486.541,594.268C486.541,599.101 490.473,603.019 495.325,603.019L495.328,603.019C500.179,603.019 504.112,599.101 504.112,594.268L504.108,584.125C499.402,581.516 496.668,579.498 496.668,579.498C492.876,585.019 488.816,587.811 486.527,589.06Z" style="fill:rgb(255,205,106);"/>
            </g>
            <g transform="matrix(1.61916,-1.61916,-1.62528,-1.62528,426.533,2249.58)">
                <path d="M504.109,556.952L504.112,552.484C504.112,547.651 500.179,543.733 495.328,543.733L495.325,543.733C490.473,543.733 486.541,547.651 486.541,552.484L486.527,557.003L486.527,561.915C490.834,563.345 494.395,566.629 494.395,566.629C497.906,561.517 501.758,558.326 504.109,556.952Z" style="fill:rgb(151,108,251);"/>
            </g>
            <g transform="matrix(0.606061,0.856423,-0.856423,0.606061,500.915,19.6306)">
                <path d="M286.111,412.618L281.423,412.618L281.423,406.492L290.033,406.492C291.191,404.265 292.106,401.946 292.761,399.458L276.044,399.458L276.044,393.332L293.794,393.332C293.949,390.84 293.68,388.476 293.16,386.298L271.884,386.298L271.884,380.172L290.916,380.172C288.598,375.494 285.747,372.597 285.747,372.597L289.605,368.335C289.605,368.335 304.92,382.705 300.855,403.385C297.134,422.311 273.696,435.537 261.124,451.632L266.59,451.632L266.59,457.758L257.024,457.758C255.728,460.157 254.865,462.512 254.342,464.792L270.977,464.792L270.977,470.918L253.687,470.918C253.719,473.433 254.109,475.796 254.697,477.952L276.044,477.952L276.044,484.078L257.066,484.078C259.115,488.148 261.337,490.599 261.337,490.599L257.933,495.231C257.933,495.231 245.316,483.316 246.399,465.924C247.652,445.824 262.377,436.616 273.708,425.838C278.699,421.092 282.873,416.894 286.111,412.618Z" style="fill:rgb(253,75,81);"/>
            </g>
            <g transform="matrix(-0.606061,-0.856423,-0.856423,0.606061,894.42,445.351)">
                <path d="M286.111,484.38C283.558,487.752 280.422,491.075 276.763,494.657C278.692,496.493 281.607,499.245 283.602,501.017C291.797,493.125 298.939,484.891 300.855,475.147C304.92,454.467 289.605,440.097 289.605,440.097L285.747,444.359C285.747,444.359 288.598,447.256 290.916,451.934L281.285,451.934L281.285,458.06L293.16,458.06C293.68,460.238 293.949,462.602 293.794,465.094L276.898,465.094L276.898,471.22L292.761,471.22C292.106,473.708 291.191,476.027 290.033,478.254L271.831,478.254L271.831,484.38L286.111,484.38ZM261.124,523.394C264.01,519.699 267.468,516.156 271.129,512.661L264.191,506.168C255.452,514.096 247.316,522.973 246.399,537.686C245.316,555.078 257.933,566.993 257.933,566.993L261.337,562.361C261.337,562.361 259.115,559.91 257.066,555.84L266.452,555.84L266.452,549.714L254.697,549.714C254.109,547.558 253.719,545.195 253.687,542.68L271.831,542.68L271.831,536.554L254.342,536.554C254.865,534.274 255.728,531.919 257.024,529.52L275.991,529.52L275.991,523.394L261.124,523.394Z" style="fill:rgb(253,75,81);"/>
            </g>
        </g>
    </g>
</svg>
